<svg width="226" height="67" viewBox="0 0 226 67" fill="none" xmlns="http://www.w3.org/2000/svg">
<path d="M224.066 59.0371C224.066 59.8768 223.9 60.7081 223.579 61.4837C223.257 62.2594 222.786 62.964 222.192 63.5574C221.598 64.1508 220.892 64.6212 220.116 64.9419C219.34 65.2626 218.508 65.4272 217.668 65.4264H8.30463C6.60772 65.4281 4.97959 64.756 3.77829 63.5579C2.57699 62.3597 1.90089 60.7336 1.89868 59.0371V8.08508C1.90089 6.38786 2.57672 4.76088 3.77779 3.56139C4.97885 2.3619 6.60696 1.68794 8.30463 1.6875H217.667C218.507 1.6875 219.339 1.85299 220.115 2.17452C220.892 2.49605 221.597 2.96732 222.191 3.56141C222.785 4.1555 223.256 4.86078 223.578 5.63696C223.899 6.41314 224.065 7.24501 224.064 8.08508L224.066 59.0371Z" fill="white"/>
<path d="M217.668 66.9121H8.30459C6.2142 66.9117 4.20936 66.0822 2.72998 64.6057C1.2506 63.1292 0.417521 61.1263 0.413544 59.0365L0.413544 8.0861C0.416636 5.99523 1.24916 3.99095 2.7285 2.51295C4.20783 1.03495 6.21316 0.203913 8.30459 0.202148L217.667 0.202148C219.758 0.204794 221.763 1.03611 223.242 2.51392C224.721 3.99173 225.554 5.9955 225.558 8.0861V59.0365C225.561 63.3805 222.015 66.9121 217.668 66.9121Z" fill="#A6A6A6"/>
<path d="M224.066 59.0371C224.066 59.8768 223.9 60.7081 223.579 61.4837C223.257 62.2594 222.786 62.964 222.192 63.5574C221.598 64.1508 220.892 64.6212 220.116 64.9419C219.34 65.2626 218.508 65.4272 217.668 65.4264H8.30463C6.60772 65.4281 4.97959 64.756 3.77829 63.5579C2.57699 62.3597 1.90089 60.7336 1.89868 59.0371V8.08508C1.90089 6.38786 2.57672 4.76088 3.77779 3.56139C4.97885 2.3619 6.60696 1.68794 8.30463 1.6875H217.667C218.507 1.6875 219.339 1.85299 220.115 2.17452C220.892 2.49605 221.597 2.96732 222.191 3.56141C222.785 4.1555 223.256 4.86078 223.578 5.63696C223.899 6.41314 224.065 7.24501 224.064 8.08508L224.066 59.0371Z" fill="black"/>
<path d="M50.6865 33.2063C50.6381 27.8297 55.0901 25.2139 55.2936 25.0921C52.7723 21.4171 48.8643 20.915 47.491 20.8749C44.2088 20.5296 41.025 22.8384 39.353 22.8384C37.6477 22.8384 35.0729 20.9083 32.298 20.965C28.7271 21.02 25.3864 23.087 23.5543 26.2966C19.7731 32.841 22.5931 42.4582 26.2158 47.7481C28.0279 50.3405 30.1454 53.2315 32.9171 53.1297C35.6286 53.0196 36.6415 51.4031 39.9137 51.4031C43.1559 51.4031 44.107 53.1297 46.9337 53.0646C49.8438 53.0196 51.676 50.4622 53.4248 47.8482C55.5189 44.8804 56.3599 41.9544 56.3933 41.8042C56.3265 41.7809 50.7432 39.6489 50.6865 33.2063ZM45.3468 17.395C46.8052 15.5717 47.8031 13.0911 47.5261 10.5737C45.4152 10.6672 42.7754 12.0334 41.2553 13.8167C39.9104 15.3882 38.7089 17.9639 39.0193 20.3861C41.3905 20.563 43.825 19.19 45.3468 17.395Z" fill="white"/>
<path d="M217.668 0.202148H105.527L149.451 66.9121H217.668C219.759 66.9103 221.764 66.0798 223.243 64.6025C224.722 63.1252 225.555 61.1218 225.559 59.0315V8.0861C225.556 5.99536 224.723 3.99134 223.244 2.51344C221.765 1.03553 219.76 0.204354 217.668 0.202148Z" fill="url(#paint0_linear_1_591)"/>
<path d="M89.9614 52.7577H86.1719L84.0961 46.2366H76.8808L74.9035 52.7577H71.2141L78.3643 30.5572H82.7795L89.9614 52.7577ZM83.4703 43.5008L81.5931 37.7038C81.3945 37.1115 81.0208 35.7169 80.4734 33.5216H80.4067C80.1864 34.4658 79.8344 35.8604 79.3521 37.7038L77.5066 43.5008H83.4703ZM108.313 44.5567C108.313 47.2793 107.574 49.4313 106.094 51.011C104.769 52.4173 103.122 53.1197 101.158 53.1197C99.0372 53.1197 97.512 52.364 96.5859 50.8492V59.2487H93.0284V42.0111C93.0284 40.3012 92.9833 38.5479 92.8965 36.7495H96.0253L96.2238 39.2869H96.2906C97.477 37.3751 99.2775 36.4192 101.694 36.4192C103.583 36.4192 105.159 37.1649 106.421 38.658C107.681 40.1544 108.313 42.1195 108.313 44.5567ZM104.689 44.6869C104.689 43.1288 104.338 41.8442 103.634 40.8316C102.865 39.779 101.832 39.2519 100.537 39.2519C99.6596 39.2519 98.862 39.5455 98.1495 40.1243C97.4353 40.7082 96.9681 41.4706 96.7495 42.4148C96.6519 42.7679 96.5964 43.1313 96.5843 43.4974V46.1682C96.5843 47.331 96.9414 48.3136 97.6555 49.1176C98.3697 49.9184 99.2975 50.3204 100.439 50.3204C101.779 50.3204 102.822 49.8016 103.568 48.7723C104.315 47.7397 104.689 46.3784 104.689 44.6869ZM126.73 44.5567C126.73 47.2793 125.991 49.4313 124.511 51.011C123.184 52.4173 121.539 53.1197 119.573 53.1197C117.452 53.1197 115.927 52.364 115.001 50.8492V59.2487H111.444V42.0111C111.444 40.3012 111.399 38.5479 111.312 36.7495H114.44L114.639 39.2869H114.706C115.891 37.3751 117.691 36.4192 120.109 36.4192C121.996 36.4192 123.573 37.1649 124.838 38.658C126.096 40.1544 126.73 42.1195 126.73 44.5567ZM123.104 44.6869C123.104 43.1288 122.752 41.8442 122.048 40.8316C121.279 39.779 120.249 39.2519 118.954 39.2519C118.076 39.2519 117.279 39.5455 116.563 40.1243C115.849 40.7082 115.383 41.4706 115.165 42.4148C115.056 42.8552 114.998 43.2138 114.998 43.4974V46.1682C114.998 47.331 115.357 48.3136 116.067 49.1176C116.782 49.9167 117.709 50.3204 118.854 50.3204C120.196 50.3204 121.239 49.8016 121.983 48.7723C122.73 47.7397 123.104 46.3784 123.104 44.6869ZM147.321 46.5302C147.321 48.4203 146.66 49.9567 145.347 51.1428C143.902 52.4374 141.885 53.0863 139.298 53.0863C136.909 53.0863 134.993 52.6259 133.548 51.7034L134.371 48.7389C135.931 49.6631 137.645 50.1236 139.51 50.1236C140.852 50.1236 141.895 49.8199 142.639 49.2177C143.385 48.6138 143.762 47.8064 143.762 46.7988C143.762 45.8963 143.45 45.1406 142.838 44.5251C142.222 43.9112 141.204 43.339 139.774 42.8135C135.886 41.3638 133.94 39.2435 133.94 36.4543C133.94 34.6326 134.628 33.1412 135.999 31.9751C137.371 30.8107 139.19 30.2285 141.453 30.2285C143.473 30.2285 145.157 30.5805 146.494 31.2828L145.601 34.1822C144.343 33.5015 142.923 33.1612 141.334 33.1612C140.079 33.1612 139.095 33.4698 138.391 34.0837C137.798 34.6326 137.498 35.3015 137.498 36.0956C137.498 36.9714 137.84 37.6987 138.521 38.2693C139.111 38.7948 140.189 39.367 141.748 39.9809C143.66 40.7516 145.065 41.6491 145.965 42.68C146.871 43.711 147.321 44.9972 147.321 46.5302ZM159.114 39.4187H155.192V47.1908C155.192 49.1677 155.883 50.1536 157.268 50.1536C157.904 50.1536 158.431 50.1002 158.848 49.9884L158.947 52.6893C158.246 52.9512 157.323 53.083 156.18 53.083C154.775 53.083 153.677 52.6542 152.884 51.7968C152.095 50.9393 151.698 49.503 151.698 47.4811V39.412H149.362V36.7429H151.698V33.8118L155.192 32.7575V36.7429H159.114V39.4187ZM176.771 44.6218C176.771 47.0824 176.067 49.1026 174.662 50.6824C173.192 52.3089 171.236 53.1197 168.798 53.1197C166.446 53.1197 164.575 52.3406 163.18 50.7842C161.785 49.2244 161.088 47.2592 161.088 44.8887C161.088 42.4081 161.808 40.3762 163.245 38.7964C164.685 37.215 166.624 36.4242 169.062 36.4242C171.412 36.4242 173.299 37.205 174.727 38.7631C176.092 40.2745 176.771 42.2263 176.771 44.6218ZM173.083 44.7036C173.083 43.2372 172.766 41.9794 172.131 40.9267C171.385 39.6556 170.317 39.02 168.934 39.02C167.509 39.02 166.416 39.6556 165.671 40.9267C165.034 41.9794 164.717 43.2589 164.717 44.7703C164.717 46.2383 165.034 47.4995 165.671 48.5488C166.441 49.8199 167.514 50.4555 168.904 50.4555C170.263 50.4555 171.33 49.8066 172.101 48.5171C172.755 47.4394 173.083 46.1732 173.083 44.7036ZM188.34 39.8774C187.97 39.8106 187.595 39.7777 187.219 39.779C185.967 39.779 184.999 40.2494 184.319 41.197C183.728 42.0311 183.431 43.0854 183.431 44.3582V52.7577H179.873V41.7909C179.876 40.1104 179.842 38.4301 179.77 36.7512H182.868L182.999 39.814H183.097C183.474 38.7614 184.065 37.9123 184.876 37.2767C185.618 36.7213 186.52 36.4206 187.447 36.4192C187.776 36.4192 188.073 36.4426 188.337 36.4843L188.34 39.8774ZM204.251 43.9962C204.26 44.5369 204.216 45.0772 204.12 45.6094H193.448C193.488 47.1908 194.005 48.402 194.996 49.2361C195.896 49.9801 197.059 50.3538 198.487 50.3538C200.067 50.3538 201.509 50.1035 202.805 49.5981L203.363 52.0654C201.848 52.726 200.059 53.0546 197.995 53.0546C195.512 53.0546 193.563 52.3239 192.144 50.8659C190.729 49.4062 190.02 47.4444 190.02 44.9871C190.02 42.5749 190.679 40.5647 191.999 38.9616C193.381 37.25 195.248 36.3942 197.598 36.3942C199.905 36.3942 201.652 37.25 202.839 38.9616C203.778 40.3178 204.251 41.9994 204.251 43.9962ZM200.858 43.0737C200.883 42.0177 200.65 41.1086 200.167 40.3395C199.552 39.3486 198.604 38.8548 197.334 38.8548C196.171 38.8548 195.223 39.3369 194.502 40.3045C193.91 41.0735 193.558 41.9977 193.449 43.0704L200.858 43.0737Z" fill="white"/>
<path d="M75.8547 22.7068C74.8652 22.7068 74.0092 22.6585 73.2967 22.5767V11.8435C74.2932 11.6896 75.3003 11.6137 76.3086 11.6166C80.3885 11.6166 82.2674 13.6234 82.2674 16.8948C82.2674 20.6683 80.048 22.7068 75.8547 22.7068ZM76.4521 12.9929C75.9015 12.9929 75.4326 13.0262 75.0438 13.1063V21.2655C75.254 21.2989 75.6578 21.3139 76.2252 21.3139C78.8983 21.3139 80.4202 19.7925 80.4202 16.9432C80.4202 14.4025 79.0435 12.9929 76.4521 12.9929ZM88.1226 22.7886C85.8232 22.7886 84.3331 21.072 84.3331 18.7415C84.3331 16.3126 85.8549 14.581 88.2528 14.581C90.5188 14.581 92.0423 16.2158 92.0423 18.6131C92.0423 21.072 90.4721 22.7886 88.1226 22.7886ZM88.1894 15.8588C86.9262 15.8588 86.1169 17.0399 86.1169 18.6915C86.1169 20.3113 86.9429 21.4924 88.1727 21.4924C89.4025 21.4924 90.2285 20.2295 90.2285 18.6581C90.2285 17.0566 89.4192 15.8588 88.1894 15.8588ZM105.155 14.7428L102.693 22.6101H101.09L100.07 19.1936C99.8167 18.3579 99.6056 17.5099 99.4378 16.6529H99.4044C99.2759 17.5104 99.0323 18.3695 98.7736 19.1936L97.689 22.6101H96.0688L93.7527 14.7428H95.5498L96.4409 18.4829C96.6511 19.3738 96.828 20.2145 96.9748 21.0086H97.0082C97.1367 20.3463 97.3469 19.5189 97.6556 18.4996L98.7736 14.7445H100.199L101.268 18.4195C101.527 19.3104 101.737 20.1845 101.901 21.0103H101.947C102.061 20.2012 102.239 19.3421 102.481 18.4195L103.438 14.7445L105.155 14.7428ZM114.215 22.6101H112.467V18.0926C112.467 16.7013 111.933 16.004 110.88 16.004C109.843 16.004 109.131 16.8948 109.131 17.9308V22.6101H107.382V16.9916C107.382 16.2959 107.366 15.5502 107.317 14.7411H108.856L108.937 15.9556H108.986C109.456 15.1148 110.411 14.581 111.48 14.581C113.132 14.581 114.217 15.8438 114.217 17.8991L114.215 22.6101ZM119.038 22.6101H117.287V11.1328H119.038V22.6101ZM125.414 22.7886C123.116 22.7886 121.624 21.072 121.624 18.7415C121.624 16.3126 123.146 14.581 125.542 14.581C127.81 14.581 129.332 16.2158 129.332 18.6131C129.333 21.072 127.761 22.7886 125.414 22.7886ZM125.479 15.8588C124.216 15.8588 123.406 17.0399 123.406 18.6915C123.406 20.3113 124.234 21.4924 125.46 21.4924C126.692 21.4924 127.516 20.2295 127.516 18.6581C127.518 17.0566 126.71 15.8588 125.479 15.8588ZM136.226 22.6101L136.1 21.7042H136.053C135.519 22.4333 134.74 22.7886 133.752 22.7886C132.342 22.7886 131.341 21.801 131.341 20.4731C131.341 18.5313 133.024 17.5271 135.939 17.5271V17.3819C135.939 16.346 135.39 15.8271 134.306 15.8271C133.53 15.8271 132.849 16.0223 132.25 16.411L131.895 15.2616C132.622 14.8079 133.53 14.581 134.596 14.581C136.652 14.581 137.69 15.6653 137.69 17.8357V20.7333C137.69 21.5274 137.725 22.143 137.803 22.6118L136.226 22.6101ZM135.986 18.6915C134.044 18.6915 133.069 19.1619 133.069 20.2779C133.069 21.1037 133.572 21.5074 134.269 21.5074C135.159 21.5074 135.986 20.8284 135.986 19.9059V18.6915ZM146.182 22.6101L146.1 21.3472H146.051C145.549 22.3015 144.705 22.7886 143.525 22.7886C141.628 22.7886 140.223 21.1204 140.223 18.7732C140.223 16.3126 141.68 14.5793 143.669 14.5793C144.722 14.5793 145.467 14.9347 145.888 15.6487H145.923V11.1328H147.673V20.4898C147.673 21.2505 147.692 21.9628 147.738 22.6101H146.182ZM145.923 17.9808C145.923 16.8798 145.194 15.9406 144.081 15.9406C142.784 15.9406 141.992 17.09 141.992 18.7081C141.992 20.2946 142.814 21.3806 144.046 21.3806C145.145 21.3806 145.923 20.4247 145.923 19.292V17.9808ZM158.772 22.7886C156.474 22.7886 154.984 21.072 154.984 18.7415C154.984 16.3126 156.506 14.581 158.902 14.581C161.169 14.581 162.691 16.2158 162.691 18.6131C162.693 21.072 161.123 22.7886 158.772 22.7886ZM158.837 15.8588C157.575 15.8588 156.766 17.0399 156.766 18.6915C156.766 20.3113 157.592 21.4924 158.82 21.4924C160.051 21.4924 160.876 20.2295 160.876 18.6581C160.879 17.0566 160.07 15.8588 158.837 15.8588ZM172.096 22.6101H170.345V18.0926C170.345 16.7013 169.811 16.004 168.758 16.004C167.722 16.004 167.011 16.8948 167.011 17.9308V22.6101H165.261V16.9916C165.261 16.2959 165.244 15.5502 165.196 14.7411H166.734L166.816 15.9556H166.865C167.333 15.1148 168.29 14.5793 169.358 14.5793C171.009 14.5793 172.096 15.8422 172.096 17.8974V22.6101ZM183.861 16.054H181.937V19.8742C181.937 20.8468 182.275 21.3322 182.955 21.3322C183.264 21.3322 183.523 21.2989 183.731 21.2505L183.78 22.5784C183.441 22.7085 182.987 22.7736 182.423 22.7736C181.045 22.7736 180.22 22.0129 180.22 20.021V16.054H179.072V14.7428H180.22V13.3015L181.937 12.7827V14.7411H183.861V16.054ZM193.119 22.6101H191.372V18.1259C191.372 16.718 190.84 16.0056 189.785 16.0056C188.879 16.0056 188.035 16.6212 188.035 17.8674V22.6101H186.288V11.1328H188.035V15.8588H188.07C188.62 15.0014 189.418 14.5793 190.436 14.5793C192.101 14.5793 193.119 15.8739 193.119 17.9308V22.6101ZM202.604 19.0968H197.356C197.389 20.5865 198.375 21.4273 199.835 21.4273C200.611 21.4273 201.325 21.2972 201.956 21.0553L202.228 22.2698C201.484 22.5934 200.608 22.7552 199.588 22.7552C197.127 22.7552 195.67 21.2004 195.67 18.7899C195.67 16.3777 197.162 14.5643 199.392 14.5643C201.402 14.5643 202.664 16.054 202.664 18.3044C202.675 18.57 202.655 18.836 202.604 19.0968ZM201 17.8507C201 16.6362 200.388 15.7788 199.27 15.7788C198.265 15.7788 197.471 16.6529 197.357 17.8507H201Z" fill="white"/>
<defs>
<linearGradient id="paint0_linear_1_591" x1="165.541" y1="67.0892" x2="165.541" y2="-173.499" gradientUnits="userSpaceOnUse">
<stop stop-color="#1A1A1A" stop-opacity="0.1"/>
<stop offset="0.123" stop-color="#212121" stop-opacity="0.151"/>
<stop offset="0.308" stop-color="#353535" stop-opacity="0.227"/>
<stop offset="0.532" stop-color="#575757" stop-opacity="0.318"/>
<stop offset="0.783" stop-color="#858585" stop-opacity="0.421"/>
<stop offset="1" stop-color="#B3B3B3" stop-opacity="0.51"/>
</linearGradient>
</defs>
</svg>
