<svg width="295" height="129" viewBox="0 0 295 129" fill="none" xmlns="http://www.w3.org/2000/svg">
<path fill-rule="evenodd" clip-rule="evenodd" d="M216.154 15.7505C230.304 16.7343 241.404 21.0476 252.484 25.8328C288.821 41.545 300.25 64.0366 274.037 84.5668C233.278 116.4 140.696 134.467 70.0431 121.37C54.3955 118.48 33.1668 115.621 18.0036 104.08C3.89815 93.3494 5.00861 81.3429 12.1359 70.4833C19.3961 59.3469 32.9146 49.3843 43.6116 43.0646C90.3773 15.4958 182.68 -7.47026 264.546 10.1161C266.23 10.4594 267.945 10.0625 268.465 9.23343C268.985 8.40431 268.175 7.45784 266.612 7.11961C182.341 -10.9802 87.1087 12.4392 38.975 40.8113C25.6652 48.6928 8.12377 62.0457 2.66952 76.3942C-1.01727 86.2027 0.856143 96.4662 13.0778 105.839C29.1799 118.13 51.7279 121.352 68.3381 124.427C141.278 137.953 237.034 119.377 279.049 86.4966C307.268 64.4322 295.183 40.2436 256.106 23.3543C244.194 18.167 232.012 13.6049 216.652 12.5379C214.959 12.4209 213.478 13.0458 213.44 13.9366C213.282 14.8224 214.581 15.6385 216.154 15.7505Z" fill="#F1684C"/>
</svg>
