<svg width="164" height="41" viewBox="0 0 164 41" fill="none" xmlns="http://www.w3.org/2000/svg">
<path d="M56.7329 9.38052C58.3284 9.38052 59.699 9.77549 60.8447 10.5654C62.0017 11.3691 62.9102 12.4815 63.467 13.7761C64.085 15.2026 64.393 16.7442 64.3708 18.2988C64.393 19.8535 64.085 21.3951 63.467 22.8215C62.9103 24.1164 62.0018 25.229 60.8447 26.0328C59.699 26.8228 58.3284 27.2177 56.7329 27.2177H50.6479C50.4427 27.223 50.2385 27.1862 50.0481 27.1095C49.8576 27.0328 49.6848 26.9179 49.5404 26.7719C49.3945 26.6273 49.2797 26.4544 49.203 26.2638C49.1264 26.0731 49.0896 25.8688 49.0949 25.6634V10.9346C49.0896 10.7292 49.1264 10.5249 49.203 10.3343C49.2797 10.1436 49.3945 9.97072 49.5404 9.82619C49.6848 9.68013 49.8576 9.56522 50.0481 9.48854C50.2385 9.41186 50.4427 9.37503 50.6479 9.38032L56.7329 9.38052ZM56.4782 24.2874C58.0058 24.2874 59.1515 23.7225 59.9153 22.5928C60.6791 21.463 61.0613 20.0319 61.0618 18.2992C61.0618 16.5665 60.6757 15.1353 59.9033 14.0057C59.131 12.8761 57.9893 12.3112 56.4782 12.3111H52.2773V24.2874H56.4782ZM79.9521 9.35511C80.1509 9.34713 80.3491 9.38164 80.5335 9.45635C80.7178 9.53106 80.8842 9.64424 81.0214 9.78837C81.2992 10.0938 81.4455 10.4964 81.4287 10.909V20.1339C81.4543 21.438 81.1476 22.7271 80.5376 23.8798C79.9625 24.9476 79.0975 25.8309 78.0424 26.4279C76.9227 27.0523 75.6577 27.3688 74.3762 27.3452C73.0906 27.3678 71.8218 27.0514 70.6971 26.4279C69.6367 25.8337 68.7671 24.9499 68.1898 23.8796C67.5797 22.7269 67.273 21.4378 67.2986 20.1337V10.9094C67.2937 10.7029 67.3319 10.4977 67.4108 10.3068C67.4897 10.1159 67.6076 9.94362 67.7569 9.80098C67.9124 9.65212 68.0962 9.53597 68.2973 9.45939C68.4985 9.38281 68.7129 9.34735 68.928 9.35511C69.127 9.35399 69.3241 9.39287 69.5078 9.46946C69.6915 9.54605 69.858 9.65879 69.9973 9.80098C70.1466 9.94362 70.2645 10.1159 70.3434 10.3068C70.4223 10.4977 70.4605 10.7029 70.4556 10.9094V20.1339C70.4419 20.8944 70.6263 21.6453 70.9904 22.3128C71.3237 22.9261 71.822 23.4336 72.4289 23.7777C73.0224 24.1151 73.694 24.2909 74.3766 24.2874C75.0915 24.2911 75.796 24.1159 76.426 23.7777C77.0606 23.4398 77.5894 22.9326 77.9536 22.3124C78.3416 21.6529 78.5398 20.8989 78.5265 20.1337V10.9094C78.5091 10.5012 78.6454 10.1013 78.9084 9.78877C79.0394 9.64362 79.2011 9.52941 79.3816 9.45442C79.5622 9.37942 79.7571 9.3455 79.9523 9.35511H79.9521Z" fill="#222222"/>
<path d="M99.8238 17.0279C100.692 17.3614 101.453 17.9252 102.026 18.6587C102.595 19.3891 102.879 20.3316 102.879 21.4863C102.879 23.5079 102.302 24.9179 101.147 25.7163C99.9933 26.5146 98.6184 26.9138 97.023 26.914H90.6836C90.4784 26.9195 90.2742 26.8829 90.0836 26.8064C89.893 26.7299 89.7201 26.6152 89.5755 26.4693C89.4296 26.3248 89.3148 26.1519 89.2381 25.9612C89.1615 25.7706 89.1247 25.5663 89.13 25.3608V10.6321C89.1247 10.4267 89.1615 10.2223 89.2381 10.0317C89.3148 9.84107 89.4296 9.66815 89.5755 9.52362C89.7199 9.37756 89.8927 9.26265 90.0832 9.18597C90.2736 9.10929 90.4778 9.07246 90.683 9.07775H97.0995C100.324 9.07775 101.937 10.5897 101.937 13.6135C101.951 14.327 101.761 15.0298 101.389 15.6391C101.008 16.2399 100.466 16.7212 99.8238 17.0279ZM98.6272 14.174C98.6272 13.4774 98.4532 12.9551 98.1053 12.6069C97.9091 12.4254 97.6782 12.2856 97.4266 12.1959C97.175 12.1061 96.9079 12.0682 96.6413 12.0845H92.4404V16.0595H96.7176C97.2113 16.0651 97.6886 15.883 98.0533 15.55C98.2444 15.3772 98.3949 15.1642 98.4941 14.9263C98.5933 14.6884 98.6388 14.4315 98.6272 14.174ZM97.0232 23.9844C97.821 23.9844 98.4447 23.7721 98.8945 23.3474C99.3442 22.9228 99.5691 22.3024 99.5691 21.4863C99.5691 20.484 99.306 19.8303 98.7799 19.5252C98.1871 19.2029 97.5192 19.0446 96.845 19.0665H92.4404V23.9844H97.0232ZM115.66 13.2815C115.863 13.2755 116.066 13.3121 116.254 13.389C116.443 13.4659 116.613 13.5813 116.754 13.7279C116.897 13.8742 117.009 14.0477 117.084 14.2381C117.158 14.4285 117.194 14.632 117.188 14.8364V21.3088C117.188 23.1435 116.683 24.579 115.674 25.6152C114.664 26.6514 113.225 27.1696 111.357 27.1697C109.49 27.1697 108.056 26.6516 107.054 25.6154C106.053 24.5792 105.552 23.1437 105.551 21.3088V14.8364C105.546 14.632 105.581 14.4286 105.656 14.2382C105.73 14.0478 105.842 13.8743 105.984 13.7279C106.126 13.5812 106.296 13.4657 106.485 13.3888C106.674 13.3119 106.876 13.2754 107.08 13.2815C107.283 13.2754 107.486 13.3119 107.674 13.3887C107.863 13.4655 108.033 13.5808 108.174 13.7273C108.317 13.8738 108.429 14.0474 108.503 14.2379C108.578 14.4284 108.613 14.6319 108.607 14.8364V21.3088C108.607 22.345 108.837 23.1138 109.295 23.615C109.753 24.1162 110.44 24.3668 111.357 24.3666C112.29 24.3666 112.986 24.1161 113.445 23.615C113.903 23.1139 114.133 22.3452 114.132 21.3088V14.8364C114.127 14.632 114.162 14.4286 114.236 14.2382C114.311 14.0478 114.422 13.8743 114.565 13.7279C114.706 13.5813 114.877 13.4659 115.065 13.389C115.254 13.3121 115.456 13.2755 115.66 13.2815ZM131.521 8.05835C131.724 8.052 131.925 8.08716 132.113 8.16167C132.302 8.23618 132.473 8.34846 132.616 8.4916C132.761 8.63906 132.874 8.81451 132.948 9.00722C133.022 9.19992 133.057 9.40582 133.049 9.61227V25.3604C133.054 25.5649 133.019 25.7683 132.945 25.9588C132.87 26.1493 132.759 26.3229 132.616 26.4693C132.475 26.6158 132.304 26.7311 132.116 26.8079C131.927 26.8847 131.725 26.9212 131.521 26.9152C131.321 26.9223 131.121 26.8875 130.934 26.8129C130.748 26.7383 130.579 26.6255 130.439 26.4819C130.156 26.1869 129.997 25.795 129.994 25.3863C129.513 25.9202 128.928 26.3494 128.275 26.647C127.565 26.9927 126.785 27.1714 125.996 27.1693C124.87 27.1822 123.764 26.868 122.813 26.2648C121.85 25.647 121.071 24.7798 120.561 23.7551C119.995 22.625 119.711 21.3748 119.733 20.1111C119.712 18.845 119.991 17.5919 120.547 16.4545C121.046 15.4259 121.817 14.5535 122.776 13.9318C123.705 13.3324 124.789 13.018 125.895 13.0273C126.681 13.0218 127.459 13.1734 128.185 13.4732C128.851 13.7403 129.463 14.1243 129.993 14.607V9.61267C129.988 9.40832 130.023 9.20493 130.097 9.01453C130.172 8.82413 130.284 8.6506 130.426 8.50421C130.568 8.35766 130.738 8.24229 130.927 8.16551C131.115 8.08873 131.318 8.05223 131.521 8.05835ZM126.378 24.3666C126.89 24.3815 127.399 24.2803 127.866 24.0707C128.334 23.8612 128.748 23.5486 129.078 23.1563C129.774 22.3494 130.122 21.3344 130.122 20.1113C130.122 18.8882 129.774 17.8689 129.078 17.0535C128.743 16.6694 128.33 16.3615 127.867 16.1505C127.404 15.9396 126.901 15.8304 126.392 15.8304C125.883 15.8304 125.38 15.9396 124.916 16.1505C124.453 16.3615 124.04 16.6694 123.706 17.0535C123.01 17.8689 122.662 18.8882 122.662 20.1113C122.662 21.3344 123.005 22.3494 123.693 23.1563C124.019 23.5488 124.431 23.8617 124.896 24.0714C125.361 24.2811 125.868 24.3821 126.378 24.3666ZM147.383 8.05835C147.585 8.052 147.787 8.08716 147.975 8.16167C148.163 8.23618 148.334 8.34846 148.477 8.4916C148.622 8.63906 148.735 8.81451 148.809 9.00722C148.884 9.19992 148.918 9.40582 148.91 9.61227V25.3604C148.916 25.5649 148.881 25.7683 148.806 25.9588C148.732 26.1493 148.62 26.3229 148.477 26.4693C148.336 26.6158 148.166 26.7311 147.977 26.8079C147.789 26.8847 147.586 26.9212 147.383 26.9152C147.182 26.9223 146.982 26.8875 146.796 26.8129C146.61 26.7383 146.441 26.6255 146.301 26.4819C146.018 26.1869 145.859 25.795 145.855 25.3863C145.375 25.9202 144.79 26.3494 144.137 26.647C143.426 26.9927 142.647 27.1714 141.857 27.1693C140.731 27.1822 139.626 26.868 138.675 26.2648C137.711 25.6471 136.932 24.7798 136.421 23.7549C135.856 22.6248 135.572 21.3746 135.594 20.1109C135.573 18.8447 135.852 17.5916 136.409 16.4543C136.908 15.4257 137.678 14.5534 138.637 13.9318C139.567 13.3324 140.651 13.018 141.756 13.0273C142.542 13.0216 143.321 13.1732 144.048 13.4732C144.713 13.7403 145.325 14.1243 145.856 14.607V9.61267C145.85 9.40832 145.885 9.20493 145.96 9.01453C146.034 8.82413 146.146 8.6506 146.288 8.50421C146.43 8.35776 146.6 8.24245 146.789 8.16568C146.977 8.0889 147.179 8.05234 147.383 8.05835ZM142.24 24.3666C142.752 24.3815 143.261 24.2803 143.728 24.0707C144.195 23.8612 144.609 23.5486 144.939 23.1563C145.635 22.3494 145.983 21.3344 145.983 20.1113C145.983 18.8882 145.635 17.8689 144.939 17.0535C144.605 16.6694 144.192 16.3615 143.729 16.1505C143.265 15.9396 142.762 15.8304 142.253 15.8304C141.744 15.8304 141.241 15.9396 140.778 16.1505C140.314 16.3615 139.902 16.6694 139.567 17.0535C138.871 17.8688 138.523 18.888 138.523 20.1111C138.523 21.3342 138.867 22.3492 139.554 23.1561C139.88 23.5487 140.292 23.8617 140.757 24.0714C141.223 24.2812 141.73 24.3821 142.24 24.3666ZM162.328 13.2815C162.531 13.2754 162.734 13.3119 162.922 13.3887C163.111 13.4655 163.281 13.5808 163.422 13.7273C163.565 13.8737 163.677 14.0473 163.752 14.2378C163.826 14.4283 163.862 14.6319 163.856 14.8364V25.6662C163.856 27.8746 163.262 29.4842 162.074 30.4949C160.886 31.5056 159.299 32.011 157.313 32.011C156.721 32.0098 156.129 31.963 155.544 31.8709C155.043 31.8039 154.552 31.68 154.08 31.5015C153.248 31.1447 152.832 30.6521 152.832 30.0236C152.836 29.8845 152.862 29.7469 152.908 29.616C152.985 29.2823 153.169 28.9827 153.43 28.7623C153.656 28.5745 153.939 28.4709 154.232 28.4693C154.397 28.4684 154.56 28.4943 154.716 28.5457C154.835 28.5967 155.043 28.6816 155.34 28.8005C155.646 28.9222 155.961 29.0201 156.282 29.0935C156.62 29.1707 156.966 29.2092 157.313 29.2081C158.518 29.2081 159.405 28.949 159.973 28.4309C160.542 27.9127 160.826 27.0254 160.826 25.7689V25.5133C159.943 26.6176 158.568 27.1697 156.701 27.1697C155.877 27.1856 155.066 26.9692 154.359 26.5453C153.679 26.1288 153.132 25.5279 152.78 24.8125C152.395 24.0237 152.204 23.1546 152.22 22.277V14.8364C152.215 14.632 152.25 14.4286 152.324 14.2382C152.399 14.0478 152.511 13.8743 152.653 13.7279C152.795 13.5814 152.965 13.4661 153.153 13.3893C153.342 13.3125 153.544 13.276 153.748 13.2821C153.951 13.276 154.154 13.3125 154.342 13.3893C154.531 13.4661 154.701 13.5814 154.843 13.7279C154.985 13.8743 155.097 14.0478 155.171 14.2382C155.246 14.4286 155.281 14.632 155.275 14.8364V21.3603C155.275 22.4305 155.509 23.1992 155.975 23.6664C156.442 24.1336 157.125 24.3671 158.025 24.3668C158.907 24.3668 159.59 24.1078 160.074 23.5896C160.558 23.0714 160.8 22.3282 160.8 21.3599V14.8364C160.794 14.632 160.83 14.4286 160.904 14.2382C160.978 14.0478 161.09 13.8743 161.233 13.7279C161.374 13.5813 161.545 13.4658 161.733 13.3889C161.922 13.3121 162.124 13.2754 162.328 13.2815Z" fill="white"/>
<path d="M15.9984 40.4231C14.0118 40.4231 14.4519 39.2266 15.5957 38.094C16.0396 37.2552 18.8947 36.3016 19.5893 35.6611C22.3501 34.4611 23.6251 30.6448 24.2972 27.5077C23.6586 27.6064 23.0101 27.6232 22.3673 27.5579C20.6123 27.3869 18.8146 26.6487 17.367 25.6645C17.3631 25.6622 17.3601 25.6586 17.3587 25.6542C17.3572 25.6499 17.3574 25.6452 17.3591 25.641C17.3609 25.6368 17.3641 25.6334 17.3682 25.6314C17.3722 25.6294 17.3769 25.6289 17.3813 25.6301C20.2427 26.2158 22.789 25.4613 24.9336 23.8979C24.94 23.8599 24.9463 23.823 24.9525 23.7871C25.1935 22.4016 24.9928 20.9503 25.2942 19.5883C25.7026 17.7428 27.258 16.1977 29.1154 15.8606C29.6397 15.7655 30.2047 15.8533 30.7263 15.9167C31.3502 15.9932 31.9437 16.2297 32.4493 16.6034C32.7767 16.8349 33.1304 17.0667 33.3865 17.3792C35.0315 19.3877 34.762 21.6535 34.7466 24.0742C34.7323 26.2945 33.9828 28.6296 32.9973 30.5886C31.1898 34.1813 28.4406 37.4094 24.6963 39.1147C20.5408 40.4879 19.4874 40.7333 18.8541 39.9789C17.5912 40.2906 16.6611 40.4233 15.9996 40.4233L15.9984 40.4231ZM22.9553 12.6742C21.8514 10.7331 22.3626 7.94245 24.226 6.66616C24.8003 6.26417 25.4477 5.97872 26.1317 5.82594C26.705 5.70828 27.3824 5.7453 27.9504 5.8742C29.1964 6.15711 30.3957 6.95552 31.0374 8.07965C32.5779 10.7777 30.7798 14.276 27.8547 14.8949C27.5613 14.9567 27.2623 14.9877 26.9625 14.9875C25.3456 14.9875 23.7652 14.0982 22.9553 12.6742Z" fill="white"/>
<path d="M17.9314 40.5518C14.8217 40.5518 10.8238 39.6657 6.60937 36.4025C2.76411 33.3286 0.0244181 29.0884 0.000109536 24.074C-0.00314489 23.3939 0.0406902 22.7379 0.0871155 22.062C0.293937 19.0595 1.15364 14.3933 4.78597 13.9467C5.19913 13.8938 5.61737 13.8942 6.03042 13.948C7.8337 14.2059 9.37251 15.728 9.55555 17.5596C9.6583 18.5876 9.33312 19.6034 9.28843 20.6251C9.28444 20.7162 9.28092 20.8072 9.27787 20.8983C11.1997 23.5896 13.9444 25.52 17.4447 25.711C17.5955 25.7192 17.7476 25.7288 17.9012 25.7398C17.9559 25.7438 17.9579 25.7564 17.9072 25.7778C17.6976 25.8675 17.4109 25.9688 17.0469 26.0817C15.0694 26.6941 12.8514 26.878 10.8492 26.3619C10.4697 26.2646 10.0978 26.1397 9.73641 25.9884C10.7756 30.2567 13.577 34.0104 17.2292 36.4026C18.2765 37.0887 20.9974 38.5302 22.3978 38.8726C22.9272 38.9672 23.8383 39.3086 24.0679 39.3271C23.6507 39.5019 21.3179 40.5518 17.9325 40.5519L17.9314 40.5518ZM24.0683 39.3271C24.0923 39.317 24.1101 39.3098 24.1215 39.3059C24.1261 39.3211 24.1132 39.3278 24.0863 39.3278C24.0804 39.3278 24.0745 39.3276 24.068 39.3271L24.0683 39.3271ZM9.48974 12.0582C5.61326 12.0582 3.06903 7.37789 5.42091 4.05208C6.28094 2.83588 7.57467 2.24068 8.99752 1.98894C11.7398 1.50369 14.3597 4.00695 14.5406 6.63844C14.6233 7.87522 14.2513 9.09959 13.4949 10.081C12.7384 11.0625 11.6495 11.7333 10.4333 11.9672C10.123 12.0272 9.80769 12.0577 9.49166 12.0581L9.48974 12.0582Z" fill="#111827"/>
<path d="M33.7549 11.2091C33.784 11.0597 33.8273 10.9134 33.8843 10.7722C33.9264 10.6685 33.9793 10.5696 34.0421 10.477C34.0281 10.4579 34.0157 10.4413 34.0018 10.4223C33.9926 10.4088 33.986 10.3937 33.9822 10.3778C33.9778 10.3621 33.9721 10.3467 33.9651 10.3319C33.9568 10.3007 33.953 10.2684 33.9538 10.2361C33.9522 10.2023 33.9567 10.1684 33.9673 10.1363C33.9719 10.1202 33.9785 10.1047 33.9869 10.0902C33.9935 10.0749 34.0002 10.0594 34.007 10.0443C34.0153 10.03 34.0255 10.017 34.0374 10.0055C34.048 9.99144 34.0579 9.97916 34.0679 9.96687C34.0896 9.94324 34.1154 9.9237 34.1441 9.90918C34.1466 9.90777 34.1472 9.90579 34.1492 9.90636C34.1543 9.90353 34.1614 9.90115 34.1665 9.89833C34.1846 9.8895 34.2033 9.88194 34.2225 9.8757C34.2303 9.43616 34.1155 9.00222 34.031 8.56669C33.9686 8.27802 33.941 7.9829 33.949 7.68767C33.9548 7.52519 33.9821 7.36419 34.03 7.20887L32.2474 7.4857C32.2723 7.35387 32.276 7.21889 32.2582 7.08589C32.0943 5.85358 30.7112 4.62894 28.8941 4.10725C27.0769 3.58556 25.2562 3.89044 24.4649 4.8485C24.3778 4.95088 24.3088 5.0673 24.2607 5.1928L22.6605 3.80886C22.6353 3.78687 22.6168 3.75813 22.6073 3.72601C22.5977 3.69388 22.5976 3.65971 22.6068 3.62751C22.616 3.5953 22.6342 3.56641 22.6593 3.54421C22.6844 3.52202 22.7153 3.50745 22.7483 3.50222L29.1528 2.50516C29.2186 2.49523 29.2857 2.49959 29.3496 2.51794C29.4135 2.53628 29.4727 2.56819 29.5232 2.61148L34.4283 6.85779C34.4535 6.87977 34.472 6.90851 34.4815 6.94063C34.491 6.97275 34.4911 7.00692 34.4819 7.0391L34.4807 7.04319C34.4481 7.18683 34.3838 7.32135 34.3533 7.46553C34.3232 7.61549 34.3119 7.76861 34.3195 7.92138C34.3368 8.21286 34.3801 8.50222 34.4487 8.78603C34.5278 9.16423 34.6014 9.55385 34.5639 9.93307C34.5903 9.95155 34.6128 9.97486 34.6305 10.0018C34.6333 10.0068 34.6367 10.01 34.6395 10.0151C34.6682 10.0481 34.6879 10.088 34.6969 10.1308C34.7037 10.1527 34.7073 10.1755 34.7077 10.1985C34.7092 10.21 34.7095 10.2217 34.7085 10.2333C34.7074 10.2907 34.6928 10.3471 34.6657 10.3977C34.7816 10.534 34.8666 10.6936 34.9151 10.8658C34.9814 11.1389 35.0125 11.4194 35.0078 11.7004C35.008 11.7069 35.0077 11.7156 35.008 11.7221C35.008 11.7287 35.0083 11.7352 35.0089 11.7418C35.0048 11.7482 34.9988 11.7533 34.9918 11.7563C34.9021 11.806 34.7935 11.7942 34.6915 11.7821C34.6816 11.6585 34.6672 11.5358 34.6528 11.4132C34.6506 11.4271 34.6494 11.4412 34.6493 11.4553C34.6468 11.4719 34.6467 11.487 34.6448 11.5014C34.6407 11.5306 34.6361 11.5615 34.6321 11.5905C34.6225 11.6493 34.6067 11.7069 34.585 11.7624C34.5845 11.7643 34.5825 11.7638 34.5819 11.7657C34.5805 11.7665 34.5789 11.7668 34.5774 11.7666C34.5563 11.7668 34.5351 11.7651 34.5143 11.7613C34.5138 11.7618 34.5132 11.7621 34.5126 11.7622C34.512 11.7624 34.5113 11.7623 34.5107 11.7621C34.51 11.762 34.5095 11.7616 34.509 11.7612C34.5085 11.7607 34.5082 11.7601 34.508 11.7595C34.5065 11.757 34.5066 11.757 34.5071 11.755C34.5054 11.7336 34.5048 11.7122 34.5053 11.6907C34.5026 11.7019 34.499 11.7128 34.4946 11.7235C34.4921 11.7385 34.4885 11.7533 34.484 11.7679C34.4608 11.7691 34.4376 11.7661 34.4155 11.7589L34.4135 11.7583C34.4132 11.7583 34.413 11.7581 34.4128 11.758C34.4126 11.7578 34.4124 11.7576 34.4122 11.7574C34.4121 11.7571 34.412 11.7569 34.412 11.7566C34.412 11.7563 34.412 11.756 34.4121 11.7558C34.4138 11.7197 34.4176 11.6842 34.4187 11.65C34.4198 11.6321 34.4199 11.6141 34.4191 11.5962C34.4168 11.5795 34.4159 11.5627 34.4162 11.5458C34.4068 11.6187 34.3872 11.6899 34.3578 11.7572C34.3351 11.759 34.3123 11.7575 34.29 11.7529L34.2841 11.7512C34.2826 11.7486 34.2812 11.7461 34.2818 11.744C34.275 11.6924 34.2707 11.6396 34.262 11.5874C34.2565 11.6356 34.2458 11.6832 34.2301 11.7291C34.2297 11.732 34.2288 11.7349 34.2273 11.7374C34.2258 11.7399 34.2238 11.7422 34.2215 11.7439C34.216 11.7467 34.2097 11.7472 34.2039 11.7453C34.1828 11.7437 34.1604 11.7394 34.1393 11.7376C34.1338 11.6187 34.1348 11.4995 34.1424 11.3807C34.133 11.4396 34.1206 11.4979 34.1052 11.5554C34.0937 11.5983 34.0782 11.64 34.0589 11.6799C34.0573 11.6841 34.0547 11.6878 34.0515 11.6908C34.0443 11.694 34.0365 11.6955 34.0287 11.695C34.0196 11.6968 34.0085 11.6979 33.9997 11.6997C33.9802 11.7028 33.9605 11.7036 33.9408 11.7022C33.902 11.6993 33.8638 11.6912 33.8271 11.6781C33.8242 11.6776 33.8216 11.6761 33.8197 11.6738C33.8167 11.6704 33.8149 11.6662 33.8146 11.6617C33.805 11.5898 33.8025 11.5159 33.7973 11.4433C33.7913 11.4544 33.7872 11.4663 33.785 11.4787C33.772 11.5395 33.7589 11.6005 33.7503 11.6604C33.7305 11.6611 33.7107 11.6598 33.6911 11.6564C33.7086 11.506 33.7251 11.3578 33.7549 11.2091ZM28.1912 6.56259C26.5552 6.09291 24.9455 6.25359 23.9986 6.91265L24.4588 5.42646C24.5005 5.28837 24.5695 5.16007 24.6617 5.04916C25.3901 4.16789 27.0861 3.87896 28.8176 4.37609C30.5492 4.87321 31.8343 6.018 31.9857 7.15186C32.0049 7.29483 31.9955 7.44019 31.958 7.57947L31.5617 9.08399C31.1071 8.02259 29.827 7.03222 28.1912 6.56259Z" fill="#222222"/>
</svg>
