<svg width="172" height="36" viewBox="0 0 172 36" fill="none" xmlns="http://www.w3.org/2000/svg">
<g clip-path="url(#clip0_1_379)">
<path d="M29.2436 28.985L29.2458 28.9874L24.8149 33.2082C23.9071 34.0943 22.7129 34.6185 21.4523 34.6837L21.4418 34.6843L5.80085 35.1961C5.22266 35.2398 4.64209 35.1485 4.10407 34.9292C3.55654 34.7061 3.06784 34.3565 2.67731 33.9082C2.28678 33.4599 2.0054 32.9257 1.85535 32.3483C1.70806 31.7807 1.69139 31.186 1.80727 30.6109L2.80749 24.3376C2.89686 23.7915 3.1639 23.291 3.56646 22.9159L3.62383 22.8625C3.4892 22.67 3.3883 22.4551 3.32581 22.2272C3.24291 21.925 3.22999 21.6082 3.28719 21.3012L4.28943 15.0162L4.291 15.0073C4.48915 13.8789 5.04751 12.8477 5.88063 12.0717L9.93742 8.20719C10.1234 7.97632 10.3288 7.76021 10.5522 7.56148C11.442 6.76977 12.5661 6.29873 13.7489 6.22158L13.7685 6.22029L29.4299 5.75343C30.0075 5.71006 30.5873 5.80145 31.1248 6.02046C31.6724 6.24361 32.161 6.59317 32.5515 7.04142C32.942 7.4896 33.2235 8.02387 33.3735 8.60155C33.521 9.16931 33.5374 9.76357 33.4217 10.3383L30.9385 25.9603L30.9349 25.9793C30.7099 27.1415 30.1158 28.1967 29.2436 28.985Z" fill="#111827"/>
<path d="M29.2324 7.19589C29.6431 7.16132 30.0562 7.22498 30.4386 7.38165C30.8211 7.5383 31.1623 7.78364 31.435 8.09816C31.7076 8.41267 31.9042 8.78756 32.009 9.19292C32.1138 9.59827 32.124 10.0229 32.0386 10.4327L29.5686 26.0641C29.3895 26.9939 28.9129 27.8371 28.2129 28.4621C27.5129 29.0871 26.6289 29.4588 25.6987 29.5193L10.1157 30.0293C9.70493 30.0636 9.29178 29.9999 8.9092 29.8433C8.52662 29.6866 8.18523 29.4414 7.91217 29.1271C7.6391 28.8127 7.44192 28.438 7.33632 28.0328C7.23074 27.6275 7.21966 27.2029 7.30395 26.7926L8.30089 20.4689C8.36137 20.1598 8.52068 19.8799 8.754 19.6727C8.98731 19.4654 9.28158 19.3424 9.59102 19.3229C12.4379 19.3327 15.1761 19.4604 17.7522 20.3083L18.4317 23.8835C18.4483 23.9698 18.4959 24.0468 18.5652 24.0995C18.6345 24.1522 18.7206 24.1769 18.8067 24.1687C18.9058 24.1636 19.0019 24.1321 19.085 24.0771C19.1682 24.0222 19.2356 23.9458 19.2803 23.8557L21.0846 20.1993L24.888 18.8395C24.9799 18.8062 25.0618 18.7491 25.1255 18.6738C25.1891 18.5985 25.2323 18.5076 25.2508 18.4102C25.27 18.3238 25.2567 18.2333 25.2135 18.1564C25.1705 18.0794 25.1007 18.0218 25.0178 17.9946L21.6059 16.8765L20.9264 13.3014C20.9098 13.2146 20.8624 13.137 20.7932 13.0834C20.724 13.0297 20.6379 13.0038 20.5512 13.0106C20.4515 13.0161 20.3551 13.0486 20.2719 13.1046C20.1887 13.1606 20.1217 13.2381 20.0778 13.3292L18.2735 16.9855C15.5132 17.8894 12.6433 18.403 9.74447 18.5115C9.60569 18.5281 9.46502 18.5109 9.33396 18.4614C9.2029 18.412 9.08523 18.3317 8.99064 18.227C8.89605 18.1223 8.82724 17.9963 8.78985 17.8594C8.75246 17.7225 8.74754 17.5785 8.77554 17.4393L9.7725 11.1155C9.95034 10.1862 10.4259 9.34325 11.125 8.71822C11.8241 8.09318 12.7072 7.72134 13.6367 7.66057L29.2324 7.19589Z" fill="white"/>
<path d="M125.77 24.8142C122.88 24.9088 120.791 23.7779 120.071 21.5389L123.792 19.675C124.091 20.5929 124.888 20.9967 126.31 20.9502C127.416 20.914 128.299 20.5457 128.401 19.8183C128.528 18.9091 127.644 18.8023 126.296 18.6428C124.063 18.3765 120.847 17.5993 121.359 13.9398C121.753 11.1213 124.561 8.87997 127.947 8.76917C130.611 8.682 132.699 9.81283 133.42 12.0518L129.699 13.9158C129.375 13.1797 128.648 12.5926 127.226 12.6391C126.232 12.6716 125.646 13.0076 125.557 13.644C125.437 14.5077 126.391 14.748 127.849 14.9266C130.059 15.1937 133.099 15.954 132.584 19.6362C132.189 22.4547 129.156 24.7034 125.77 24.8142Z" fill="white"/>
<path d="M148.715 23.7013L152.959 23.5624L155.944 12.6722L157.08 21.5722C157.237 22.8568 158.277 23.4563 159.518 23.4157C160.782 23.3743 161.936 22.6804 162.51 21.304L166.166 12.3604L165.871 23.1399L170.092 23.0017L170.08 10.2412C170.07 8.38625 168.991 7.42602 167.207 7.48438C165.582 7.53756 164.101 8.33268 163.433 10.0515L160.25 18.1878L159.312 10.1184C159.122 8.42776 157.885 7.78945 156.304 7.84116C154.476 7.90099 153.075 8.91976 152.528 10.7477L148.715 23.7013Z" fill="white"/>
<path d="M134.332 17.2711C133.697 21.8171 135.469 24.4063 140.255 24.2497C145.018 24.0938 147.579 21.3628 148.215 16.8168L149.392 8.40678L145.216 8.54344L144.055 16.8398C143.724 19.2037 142.684 20.2107 140.811 20.272C138.96 20.3325 138.194 19.3847 138.525 17.0208L139.685 8.72441L135.509 8.86107L134.332 17.2711Z" fill="white"/>
<path fill-rule="evenodd" clip-rule="evenodd" d="M106.144 25.0944L110.323 24.935L110.844 21.2074L112.741 21.1453C117.165 21.0005 119.976 18.7364 120.491 15.0542C120.99 11.4856 118.652 9.41274 114.137 9.56048L108.29 9.75179L106.144 25.0944ZM111.926 13.4792L113.709 13.4208C115.515 13.3617 116.371 13.9899 116.202 15.1946C116.021 16.4902 115.042 17.2236 113.169 17.2849L111.385 17.3433L111.926 13.4792Z" fill="white"/>
<path d="M101.412 9.97689L105.588 9.84024L103.441 25.1828L99.265 25.3195L101.412 9.97689Z" fill="white"/>
<path fill-rule="evenodd" clip-rule="evenodd" d="M82.6739 18.2374C82.0346 22.8062 84.9856 26.1261 89.5906 25.9754C94.1956 25.8247 98.107 22.2802 98.7463 17.7115C99.3856 13.1429 96.4345 9.82292 91.8296 9.97361C87.2246 10.1243 83.3132 13.6688 82.6739 18.2374ZM94.4573 17.8519C94.139 20.1249 92.2688 21.9283 90.1469 21.9977C88.0249 22.0671 86.6446 20.3701 86.9629 18.0971C87.2811 15.8242 89.1507 14.0208 91.2726 13.9513C93.3945 13.8819 94.7755 15.5789 94.4573 17.8519Z" fill="white"/>
<path d="M74.2026 26.4789C69.6429 26.6281 66.6595 23.2188 67.286 18.7409C67.9125 14.2632 71.8365 10.6278 76.4415 10.4771C79.1503 10.3885 81.6172 11.7105 82.3639 14.2428L78.6879 16.2637C78.2178 15.1251 77.4682 14.3804 75.7075 14.438C73.563 14.5082 71.9029 16.2594 71.5654 18.6688C71.2124 21.1918 72.4312 22.7583 74.7337 22.683C75.9526 22.6431 76.7362 22.5043 77.4732 21.892L77.7543 19.7784L73.7895 18.1509L82.0401 17.8809L81.9472 18.6005L81.9563 18.6002L81.8515 19.3473L81.8454 19.3965L81.8447 19.3969L81.3198 23.1462C79.892 25.003 77.2726 26.3784 74.2026 26.4789Z" fill="white"/>
<path fill-rule="evenodd" clip-rule="evenodd" d="M50.7518 19.282C50.1126 23.8507 53.0635 27.1706 57.6685 27.0199C62.2735 26.8693 66.1849 23.3248 66.8241 18.7561C67.4634 14.1874 64.5124 10.8675 59.9074 11.0182C55.3024 11.1689 51.391 14.7134 50.7518 19.282ZM62.5352 18.8964C62.2171 21.1694 60.347 22.9728 58.2251 23.0422C56.1032 23.1117 54.7227 21.4146 55.0407 19.1417C55.3588 16.8687 57.229 15.0653 59.3509 14.9959C61.4728 14.9265 62.8532 16.6235 62.5352 18.8964Z" fill="white"/>
<path d="M45.0944 11.8197L43.4883 23.2983L50.2152 23.0781L49.6746 26.9422L42.3833 27.1808C39.81 27.265 38.9624 25.9352 39.2645 23.7759L40.9183 11.9564L45.0944 11.8197Z" fill="white"/>
</g>
<defs>
<clipPath id="clip0_1_379">
<rect width="169.392" height="29.4207" fill="white" transform="translate(0.847046 5.95862) rotate(-1.87422)"/>
</clipPath>
</defs>
</svg>
