<svg width="175" height="35" viewBox="0 0 175 35" fill="none" xmlns="http://www.w3.org/2000/svg">
<g clip-path="url(#clip0_1_328)">
<path d="M38.8073 7.58057L39.4476 27.1461L51.8165 26.7413L51.7005 23.1959L43.4107 23.4671L42.8865 7.44709L38.8073 7.58057Z" fill="white"/>
<path d="M101.272 10.7684L101.741 25.1077L105.688 24.9786L105.219 10.6393L101.272 10.7684Z" fill="white"/>
<path d="M101.101 5.54211L101.229 9.48147L105.177 9.35231L105.048 5.41295L101.101 5.54211Z" fill="white"/>
<path fill-rule="evenodd" clip-rule="evenodd" d="M107.959 30.1623L107.318 10.5705L111.003 10.45L111.051 11.9375C111.461 11.4237 111.973 11.0069 112.591 10.6872C113.402 10.2576 114.334 10.0255 115.387 9.991C116.756 9.94622 118.003 10.2384 119.131 10.8676C120.257 11.4967 121.164 12.3697 121.851 13.4865C122.537 14.5858 122.902 15.8358 122.948 17.2364C122.993 18.6196 122.71 19.8908 122.098 21.05C121.504 22.2087 120.665 23.1388 119.581 23.8403C118.497 24.5418 117.254 24.9155 115.85 24.9615C114.868 24.9936 113.95 24.8484 113.097 24.5258C112.57 24.3115 112.104 24.0294 111.699 23.6794L111.907 30.0331L107.959 30.1623ZM115.261 21.4315C115.998 21.4074 116.641 21.2198 117.192 20.8688C117.742 20.5178 118.166 20.0395 118.462 19.4339C118.759 18.8282 118.894 18.1402 118.869 17.3698C118.844 16.5995 118.664 15.9306 118.329 15.3631C117.993 14.7782 117.54 14.3286 116.967 14.0143C116.394 13.6825 115.74 13.5287 115.003 13.5528C114.301 13.5757 113.675 13.7627 113.125 14.1138C112.591 14.4643 112.177 14.9423 111.88 15.5479C111.602 16.1529 111.475 16.8407 111.5 17.611C111.525 18.3813 111.697 19.0593 112.014 19.6448C112.35 20.2298 112.795 20.6797 113.35 20.9945C113.922 21.3088 114.559 21.4545 115.261 21.4315Z" fill="white"/>
<path d="M126.179 23.5192C127.379 24.2161 128.768 24.5388 130.347 24.4871C131.47 24.4504 132.437 24.2347 133.25 23.84C134.062 23.4278 134.686 22.8816 135.12 22.2014C135.571 21.5206 135.783 20.7337 135.754 19.8408C135.72 18.8078 135.376 17.9515 134.722 17.2718C134.066 16.5746 133.136 16.0705 131.932 15.7594L129.62 15.1514C129.266 15.0578 128.964 14.9538 128.714 14.8393C128.482 14.7242 128.311 14.5896 128.2 14.4355C128.09 14.2813 128.031 14.108 128.025 13.9154C128.013 13.5477 128.144 13.2542 128.418 13.035C128.709 12.8151 129.109 12.6969 129.618 12.6802C130.32 12.6572 130.949 12.8207 131.505 13.1706C132.078 13.5024 132.479 13.9624 132.709 14.5508L135.586 13.0896C135.108 11.9134 134.323 11.0189 133.232 10.4061C132.158 9.77526 130.918 9.48278 129.515 9.52871C128.445 9.56373 127.504 9.78733 126.692 10.1995C125.879 10.5941 125.256 11.1315 124.821 11.8119C124.387 12.4921 124.184 13.2787 124.213 14.1716C124.247 15.1871 124.591 16.0609 125.248 16.7931C125.904 17.5077 126.825 18.0122 128.011 18.3064L130.48 18.9091C130.8 18.9863 131.066 19.0828 131.281 19.1984C131.495 19.3141 131.657 19.449 131.768 19.6031C131.878 19.7397 131.936 19.9131 131.943 20.1232C131.956 20.5259 131.817 20.846 131.527 21.0833C131.236 21.3207 130.809 21.4485 130.248 21.4669C129.477 21.4922 128.767 21.2963 128.121 20.8793C127.476 20.4622 126.956 19.8745 126.562 19.1162L123.712 20.5766C124.174 21.8234 124.997 22.8043 126.179 23.5192Z" fill="white"/>
<path d="M151.955 9.10983L155.639 8.98926L155.696 10.7215C155.948 10.1886 156.311 9.75637 156.786 9.42492C157.576 8.87328 158.533 8.57909 159.656 8.54235C160.848 8.50331 161.902 8.77554 162.817 9.35909C163.361 9.6889 163.79 10.094 164.105 10.5745C164.467 10.0073 164.906 9.54751 165.42 9.195C166.279 8.60607 167.296 8.29233 168.471 8.25388C169.507 8.21999 170.426 8.41775 171.231 8.84715C172.053 9.27596 172.705 9.89429 173.188 10.7023C173.67 11.4927 173.929 12.4307 173.965 13.5162L174.266 22.7344L170.319 22.8635L170.045 14.4858C170.027 13.9256 169.906 13.4475 169.682 13.0517C169.476 12.6553 169.185 12.3493 168.809 12.1339C168.433 11.9183 167.982 11.8191 167.455 11.8363C166.947 11.853 166.503 11.9814 166.124 12.2217C165.764 12.4613 165.484 12.7859 165.287 13.1955C165.107 13.6046 165.026 14.0892 165.045 14.6494L165.319 23.0272L161.372 23.1563L161.097 14.7786C161.079 14.2184 160.958 13.7403 160.734 13.3445C160.528 12.9481 160.237 12.6421 159.861 12.4266C159.485 12.2111 159.034 12.1119 158.508 12.1291C157.999 12.1458 157.556 12.2742 157.177 12.5145C156.816 12.7541 156.537 13.0787 156.339 13.4883C156.16 13.8974 156.079 14.382 156.097 14.9422L156.371 23.3199L152.424 23.4491L151.955 9.10983Z" fill="white"/>
<path d="M142.627 24.0852C141.469 24.1231 140.471 23.9104 139.63 23.4471C138.806 22.9658 138.169 22.2856 137.719 21.4064C137.269 20.5273 137.024 19.4924 136.985 18.3018L136.7 9.60901L140.648 9.47984L140.922 17.8575C140.94 18.4003 141.061 18.8783 141.285 19.2916C141.527 19.6868 141.853 19.9916 142.264 20.2061C142.675 20.4205 143.134 20.5194 143.643 20.5027C144.169 20.4855 144.622 20.3567 145 20.1165C145.396 19.8757 145.693 19.5505 145.891 19.1409C146.105 18.7133 146.203 18.228 146.186 17.6853L145.912 9.30759L149.859 9.17842L150.328 23.5177L146.644 23.6383L146.587 21.8932C146.272 22.5338 145.814 23.0347 145.213 23.3959C144.489 23.8227 143.627 24.0525 142.627 24.0852Z" fill="white"/>
<path fill-rule="evenodd" clip-rule="evenodd" d="M92.5307 25.7246C91.1092 25.7711 89.8006 25.4897 88.6037 24.8803C87.4245 24.2704 86.4663 23.4167 85.7274 22.3191C85.0059 21.2035 84.6216 19.9278 84.5746 18.4921C84.5271 17.0389 84.8271 15.7408 85.4748 14.5979C86.1403 13.4544 87.0407 12.5399 88.1774 11.8541C89.332 11.1679 90.6193 10.8015 92.0408 10.755C93.4616 10.7085 94.7622 10.9902 95.9414 11.6001C97.1205 12.21 98.0702 13.064 98.7911 14.1622C99.5293 15.2597 99.9228 16.5351 99.9704 17.9883C100.017 19.424 99.708 20.7224 99.0438 21.8834C98.3962 23.0263 97.5043 23.9406 96.3676 24.6262C95.2309 25.312 93.9514 25.6781 92.5307 25.7246ZM92.4146 22.1792C93.134 22.1556 93.7514 21.9689 94.267 21.619C94.7997 21.2685 95.2052 20.7909 95.4843 20.1858C95.7806 19.5802 95.9161 18.8922 95.8909 18.1218C95.8657 17.3515 95.6858 16.6826 95.3511 16.1151C95.0331 15.5296 94.5971 15.0794 94.0427 14.7645C93.5048 14.4316 92.8761 14.2769 92.1568 14.3004C91.4375 14.324 90.8118 14.5197 90.2789 14.8877C89.7462 15.2381 89.3314 15.7162 89.0351 16.3218C88.7554 16.9094 88.6289 17.5883 88.6541 18.3586C88.6793 19.129 88.8503 19.8069 89.1683 20.3925C89.5035 20.9774 89.9487 21.4273 90.5032 21.7422C91.0584 22.057 91.6953 22.2027 92.4146 22.1792Z" fill="white"/>
<path fill-rule="evenodd" clip-rule="evenodd" d="M73.2576 31.2716C74.2168 31.6082 75.2493 31.7585 76.355 31.7223C77.7408 31.677 78.951 31.357 79.9856 30.7622C81.0373 30.1669 81.854 29.3603 82.4349 28.3422C83.0172 27.3417 83.2877 26.2111 83.2464 24.9505L82.8021 11.3728L79.1176 11.4934L79.1669 12.9995C78.7167 12.5061 78.2123 12.1252 77.6543 11.8568C76.8684 11.4618 75.9579 11.2813 74.9228 11.3152C73.6071 11.3582 72.4417 11.6943 71.4258 12.3235C70.4102 12.9526 69.6213 13.8022 69.0591 14.8722C68.4964 15.9247 68.2371 17.1251 68.2812 18.4732C68.3253 19.8214 68.6631 21.0197 69.2946 22.0681C69.9255 23.0991 70.7772 23.9038 71.85 24.4821C72.9222 25.0429 74.1248 25.3016 75.4585 25.2579C76.4935 25.2241 77.3908 25.0019 78.1497 24.5915C78.5611 24.3594 78.9292 24.0697 79.2546 23.722L79.2991 25.0797C79.3191 25.6924 79.2044 26.2307 78.9565 26.6946C78.7256 27.1578 78.3775 27.511 77.9106 27.7541C77.4451 28.0148 76.8876 28.1557 76.239 28.1769C75.414 28.2039 74.6976 28.0345 74.0879 27.6689C73.4788 27.3033 73.0673 26.7909 72.8524 26.1319L69.2365 27.5384C69.564 28.4217 70.0716 29.1762 70.7595 29.8022C71.4655 30.4451 72.2983 30.9349 73.2576 31.2716ZM77.6172 21.1911C77.1349 21.4873 76.5609 21.6463 75.8937 21.6681C75.2273 21.69 74.6262 21.5694 74.0906 21.3065C73.5723 21.0255 73.1555 20.636 72.8403 20.138C72.5433 19.6395 72.3838 19.0576 72.362 18.3923C72.3397 17.7094 72.4605 17.1095 72.7243 16.5926C73.0057 16.0576 73.3961 15.6417 73.8955 15.3449C74.4123 15.0301 75.0038 14.8617 75.6703 14.8399C76.3196 14.8187 76.8945 14.9489 77.3957 15.2304C77.8963 15.4945 78.2952 15.8845 78.5932 16.4006C78.8905 16.8991 79.0507 17.4898 79.073 18.1727C79.0954 18.8554 78.9741 19.4553 78.71 19.9723C78.4638 20.4886 78.0995 20.8949 77.6172 21.1911Z" fill="white"/>
<path fill-rule="evenodd" clip-rule="evenodd" d="M59.9027 26.7922C58.4816 26.8387 57.1727 26.5573 55.976 25.9479C54.7969 25.338 53.8381 24.4843 53.0996 23.3868C52.3782 22.2711 51.994 20.9954 51.947 19.5597C51.8994 18.1066 52.1994 16.8085 52.847 15.6656C53.5121 14.5221 54.413 13.6075 55.5498 12.9218C56.704 12.2355 57.9917 11.8691 59.4129 11.8226C60.8339 11.7761 62.134 12.0579 63.3132 12.6677C64.4923 13.2777 65.4424 14.1317 66.1632 15.2298C66.9017 16.3274 67.2947 17.6028 67.3422 19.0559C67.3892 20.4916 67.0804 21.79 66.4159 22.951C65.7684 24.0939 64.8762 25.0082 63.7395 25.6939C62.6027 26.3796 61.3238 26.7457 59.9027 26.7922ZM59.7867 23.2468C60.506 23.2233 61.1234 23.0365 61.6388 22.6867C62.1718 22.3362 62.5777 21.8585 62.8565 21.2534C63.1528 20.6478 63.2884 19.9598 63.2632 19.1894C63.238 18.4191 63.058 17.7502 62.7233 17.1827C62.4056 16.5972 61.9693 16.147 61.4145 15.8321C60.8767 15.4992 60.2482 15.3445 59.5289 15.368C58.8096 15.3916 58.1837 15.5873 57.6513 15.9553C57.1183 16.3058 56.7036 16.7838 56.4072 17.3894C56.1279 17.977 56.0008 18.6559 56.026 19.4262C56.0512 20.1966 56.2227 20.8746 56.5404 21.4601C56.8757 22.0451 57.3208 22.4949 57.8756 22.8098C58.4303 23.1246 59.0674 23.2703 59.7867 23.2468Z" fill="white"/>
<path d="M26.5617 14.4198C24.8741 11.7262 20.8796 11.8569 19.3716 14.655L17.1318 18.811L21.8876 18.6554C24.7104 18.5631 26.9067 20.4726 27.5237 22.8629L28.0747 21.8404C28.9722 20.1752 28.9063 18.1618 27.9019 16.5587L26.5617 14.4198Z" fill="#BB6BD9"/>
<path d="M18.8599 31.2196C20.6154 29.4906 21.1708 26.6656 19.6882 24.2992L17.1606 20.2653L21.9352 20.1091C25.1307 20.0045 27.2403 23.3714 25.7324 26.1695L24.2608 28.9003C23.5336 30.2496 22.1363 31.112 20.5953 31.1626L18.8599 31.2196Z" fill="#EB5757"/>
<path d="M7.19642 27.9651C9.58969 28.6248 12.3509 27.6907 13.6813 25.222L15.9279 21.0534L18.443 25.0676C20.131 27.7616 18.2452 31.2597 15.0491 31.3634L11.9297 31.4647C10.3888 31.5147 8.93849 30.7455 8.12477 29.4467L7.19642 27.9651Z" fill="#F2994A"/>
<path d="M4.23664 16.3288L3.6856 17.3513C2.78815 19.0165 2.85404 21.0299 3.85843 22.6329L5.19862 24.7719C6.88627 27.4655 10.8807 27.3347 12.3887 24.5366L14.6353 20.3679L9.86942 20.5239C7.05166 20.6161 4.85801 18.7133 4.23664 16.3288Z" fill="#F2C94C"/>
<path d="M5.99147 13.0726C5.88574 13.2767 5.79904 13.4836 5.7304 13.6918C5.79924 13.483 5.88623 13.2756 5.99236 13.071L5.99147 13.0726Z" fill="#F2C94C"/>
<path d="M12.9008 7.95723C11.1441 9.68612 10.588 12.512 12.0711 14.879L14.5993 18.9141L9.82173 19.0704C6.62616 19.175 4.5166 15.8082 6.02454 13.01L7.49743 10.2769C8.22449 8.92775 9.62144 8.06541 11.1623 8.01459L12.9008 7.95723Z" fill="#27AE60"/>
<path d="M15.8358 18.1321L13.3162 14.1106C11.6284 11.4169 13.5137 7.91902 16.7096 7.81487L19.8281 7.71324C21.3691 7.66301 22.8197 8.4322 23.6336 9.73113L24.5719 11.2289C22.1768 10.5649 19.4109 11.4983 18.079 13.9698L15.8358 18.1321Z" fill="#2F80ED"/>
<path fill-rule="evenodd" clip-rule="evenodd" d="M19.7808 6.25928C21.8453 6.192 23.7885 7.22242 24.8787 8.96249C26.3039 11.237 27.722 13.5158 29.147 15.7903C30.4279 17.8345 30.5119 20.402 29.3674 22.5256C28.0986 24.8802 26.8225 27.2309 25.5536 29.5854C24.5794 31.3931 22.7077 32.5484 20.6433 32.6162C17.7537 32.7111 14.8664 32.8244 11.9771 32.9182C9.91286 32.9852 7.96998 31.9548 6.87988 30.2149C5.45705 27.9441 4.03639 25.6719 2.61358 23.401C1.33275 21.3568 1.24874 18.7892 2.39318 16.6656C3.66398 14.3076 4.93428 11.9493 6.20507 9.59127C7.17911 7.78389 9.05047 6.62867 11.1146 6.56058C14.004 6.46554 16.8915 6.35344 19.7808 6.25928ZM12.9008 7.95706L11.1625 8.01424C9.78728 8.05961 8.5267 8.75146 7.75466 9.85894C7.66169 9.99231 7.57579 10.1317 7.49765 10.2767L6.02475 13.0098C6.01385 13.03 6.00314 13.0503 5.99261 13.0706C4.5762 15.802 6.56936 19.045 9.63815 19.0723L14.5857 18.9104L14.5851 18.8942L14.5872 18.8942L12.0713 14.8787C10.5883 12.5118 11.1443 9.68595 12.9008 7.95706ZM15.928 21.0532C16.6199 22.1574 17.3093 23.2631 18.0036 24.3657L18.4432 25.0675C20.1312 27.7614 18.2453 31.2595 15.0492 31.3633L11.9298 31.4645C10.389 31.5145 8.9387 30.7453 8.12493 29.4466L7.1965 27.9647C9.49046 28.5971 12.1224 27.7653 13.5086 25.5212L13.509 25.5206C13.5689 25.4236 13.6265 25.3239 13.6816 25.2216L15.928 21.0532ZM14.6237 20.3682L12.9385 23.4953C12.7523 23.8407 12.5752 24.1908 12.389 24.5363C10.881 27.3344 6.88648 27.4652 5.19883 24.7716L3.85864 22.6326C2.85425 21.0296 2.78837 19.0162 3.68581 17.351L4.23679 16.3286C4.54747 17.5208 5.25123 18.5927 6.22953 19.3549C7.15807 20.0784 8.33394 20.523 9.65586 20.5269C9.72666 20.5271 9.79792 20.5261 9.86964 20.5237L14.6237 20.3682ZM17.1608 20.2652L21.9354 20.109C25.1309 20.0044 27.2405 23.3714 25.7326 26.1695L24.261 28.9002C23.5337 30.2495 22.1365 31.1119 20.5955 31.1625L18.86 31.2195C20.6155 29.4906 21.171 26.6655 19.6883 24.2991L17.1608 20.2652ZM15.836 18.1319L13.3163 14.1105C11.6286 11.4167 13.5139 7.91889 16.7097 7.81474L19.8282 7.71311C21.3693 7.66288 22.8199 8.43207 23.6337 9.731L24.5721 11.2288C22.177 10.5648 19.4111 11.4981 18.0792 13.9697L15.836 18.1319ZM19.3717 14.655C20.8797 11.8569 24.8742 11.7262 26.5619 14.4197L27.9021 16.5587C28.9064 18.1617 28.9723 20.1751 28.0749 21.8404L27.5238 22.8629C26.9068 20.4726 24.7104 18.5631 21.8878 18.6554L17.132 18.811L19.3717 14.655Z" fill="white"/>
<path d="M11.1623 8.01436L12.9006 7.95717C11.1441 9.68606 10.588 12.5119 12.071 14.8789L14.587 18.8944L14.585 18.8945L14.5855 18.9106L12.9867 18.9629L10.8861 15.6103C9.30741 13.0906 9.58533 10.159 11.0455 8.01978C11.0844 8.01745 11.1233 8.01565 11.1623 8.01436Z" fill="black" fill-opacity="0.22"/>
<path d="M4.23675 16.3288C4.54743 17.5211 5.25121 18.5929 6.22951 19.3552C7.15805 20.0786 8.33392 20.5232 9.6558 20.5271C9.72667 20.5274 9.79793 20.5263 9.86957 20.524L14.6237 20.3684L13.8639 21.7783L9.91485 21.9075C6.94015 22.0049 4.52951 20.3186 3.3861 18.0125C3.46994 17.7873 3.56983 17.5663 3.68579 17.3512L4.23675 16.3288Z" fill="black" fill-opacity="0.22"/>
<path d="M7.19642 27.9651C9.49032 28.5972 12.1223 27.7654 13.5084 25.5214L13.5088 25.5208C13.5687 25.4237 13.6263 25.3241 13.6814 25.2218L15.9279 21.0534C16.1562 21.4178 16.3843 21.7825 16.6124 22.1471C16.6675 22.2353 16.7227 22.3234 16.7778 22.4115L14.9117 25.8742C13.4964 28.5003 10.7857 29.728 8.18085 29.5339C8.16184 29.5051 8.14314 29.476 8.12476 29.4467L7.19642 27.9651Z" fill="black" fill-opacity="0.22"/>
<path d="M20.7147 31.157C20.675 31.1594 20.6352 31.1613 20.5953 31.1626L18.8597 31.2196C20.6153 29.4906 21.1708 26.6656 19.6881 24.2992L17.1606 20.2653L18.7708 20.2126L20.8732 23.568C22.4515 26.087 22.174 29.0179 20.7147 31.157Z" fill="black" fill-opacity="0.22"/>
<path d="M28.3756 21.176C28.2915 21.4023 28.1912 21.6244 28.0747 21.8405L27.5236 22.863C26.9067 20.4727 24.7103 18.5632 21.8877 18.6556L17.1319 18.8112L17.8917 17.4013L21.8424 17.272C24.821 17.1745 27.234 18.8652 28.3756 21.176Z" fill="black" fill-opacity="0.22"/>
<path d="M23.5868 9.65839C23.6026 9.68243 23.6181 9.70667 23.6334 9.73109L24.5718 11.2289C22.1767 10.5649 19.4108 11.4982 18.0788 13.9698L15.8357 18.1321L14.9853 16.7749L16.8485 13.3176C18.2651 10.6889 20.9798 9.46133 23.5868 9.65839Z" fill="black" fill-opacity="0.22"/>
</g>
<defs>
<clipPath id="clip0_1_328">
<rect width="172.958" height="28.5292" fill="white" transform="translate(0.743286 6.34961) rotate(-1.87422)"/>
</clipPath>
</defs>
</svg>
