<svg width="147" height="32" viewBox="0 0 147 32" fill="none" xmlns="http://www.w3.org/2000/svg">
<g clip-path="url(#clip0_1_353)">
<path d="M56.3677 11.5122C56.5248 16.3145 56.5868 18.2103 50.3395 18.4147C56.5868 18.2103 56.6489 20.106 56.806 24.9083C56.6498 20.1345 56.5868 18.2103 62.7362 18.0091C56.5868 18.2103 56.5239 16.286 56.3677 11.5122Z" fill="white"/>
<path fill-rule="evenodd" clip-rule="evenodd" d="M26.1356 29.9313C23.975 30.002 22.0611 29.6235 20.3938 28.7959C18.7439 27.9492 17.4338 26.7423 16.4633 25.175C16.3067 24.9144 16.162 24.6462 16.0293 24.3704L15.4837 29.8938L1.08909 30.3649L1.08008 30.0896L1.10711 30.0887C1.75525 30.0675 2.27168 29.8759 2.65635 29.5141C3.04102 29.1523 3.22254 28.641 3.20091 27.98L2.68182 12.1168C2.66019 11.4559 2.44473 10.9299 2.03542 10.5389C1.62612 10.148 1.09737 9.96312 0.449235 9.98433L0.422204 9.98522L0.413191 9.70979L9.02838 9.42788L9.03739 9.7033L8.92935 9.70684C8.28114 9.72805 7.76562 9.94709 7.38278 10.364C6.99989 10.7808 6.81929 11.3198 6.84092 11.9807L7.36361 27.9541C7.38284 28.5416 7.5329 28.9962 7.81374 29.3178C8.11203 29.6205 8.61226 29.7603 9.31443 29.7374L9.88156 29.7188C11.484 29.6664 12.8178 29.1173 13.883 28.0715C14.922 27.0516 15.5627 25.6513 15.8052 23.8707C15.2724 22.5913 14.9801 21.1589 14.9283 19.5735C14.858 17.4253 15.2468 15.5379 16.0947 13.911C16.96 12.2653 18.1885 10.9753 19.7801 10.0409C21.3891 9.08771 23.2738 8.57574 25.4344 8.50504C27.5429 8.43604 29.4081 8.8039 31.0303 9.6085C32.7025 8.6961 34.6632 8.20304 36.9123 8.12945C37.6145 8.10647 38.1915 8.11518 38.6434 8.15547C39.1127 8.17695 39.5284 8.2093 39.8902 8.25253C40.2521 8.29587 40.6501 8.33793 41.0839 8.37893C41.5353 8.40087 42.094 8.40095 42.7602 8.37915L43.7506 13.8608L43.4805 13.8696C43.0993 12.136 42.3255 10.792 41.1588 9.83762C40.01 8.88272 38.5984 8.43266 36.924 8.48745C35.8977 8.52104 34.9696 8.79953 34.1396 9.32294C33.5929 9.66776 33.1035 10.0944 32.6717 10.6031C32.4706 10.8396 32.2821 11.0941 32.106 11.3662C32.0861 11.3969 32.0664 11.4278 32.0469 11.4591C31.8817 11.7277 31.7279 12.0117 31.5854 12.3112C31.3978 12.7051 31.2298 13.1262 31.0814 13.5733C31.0199 13.7579 30.9619 13.9471 30.9072 14.1409C30.8508 14.3407 30.7979 14.5454 30.7487 14.7549C30.466 16.0323 30.35 17.4422 30.4005 18.9844C30.447 20.406 30.6167 21.7092 30.9098 22.894L30.5231 24.208C30.3207 24.8956 30.0713 25.4995 29.7793 26.0252C29.5992 26.3373 29.4069 26.6186 29.2033 26.8707L29.1839 26.8949C28.495 26.2958 27.9008 25.6032 27.4011 24.8171C26.3939 23.2326 25.8547 21.3479 25.7832 19.1631C25.7135 17.0333 26.1296 15.1542 27.0316 13.5256C27.6474 12.4136 28.4451 11.4628 29.4244 10.6732C29.0028 10.2061 28.5401 9.82258 28.0361 9.52267C27.2457 9.05228 26.3823 8.83241 25.4461 8.86304C24.5099 8.89368 23.6628 9.16952 22.9047 9.69058C22.1468 10.2116 21.5125 10.9308 21.0018 11.8482C20.4731 12.7661 20.0767 13.8726 19.8127 15.1678C19.5661 16.4441 19.468 17.8534 19.5184 19.3957C19.5689 20.938 19.7589 22.3377 20.0885 23.5951C20.436 24.852 20.9036 25.9211 21.4911 26.8025C22.0607 27.6846 22.7407 28.3607 23.5311 28.8311C24.3215 29.3015 25.1849 29.5213 26.1211 29.4907C27.0573 29.46 27.9045 29.1842 28.6624 28.6631C29.4204 28.1421 30.0637 27.4227 30.5924 26.5046C31.1031 25.5873 31.4817 24.4906 31.7283 23.2142C31.993 21.9374 32.1001 20.5279 32.0496 18.9856C32.004 17.5912 31.8369 16.3134 31.5484 15.1523L31.9707 13.8809C32.211 13.1572 32.5023 12.5227 32.8402 11.9719C32.9306 11.8281 33.0244 11.6905 33.1214 11.5591C33.2057 11.4448 33.2925 11.3352 33.3818 11.2301L33.4016 11.212C34.0488 11.8116 34.6084 12.5041 35.0805 13.2898C36.051 14.8571 36.5714 16.7148 36.6417 18.863C36.712 21.0111 36.3145 22.9079 35.4491 24.5537C34.8742 25.6566 34.1244 26.6048 33.1997 27.3982C33.613 27.8301 34.063 28.1875 34.5499 28.4705C35.3764 28.9397 36.2847 29.1581 37.2749 29.1257C38.0131 29.1015 38.7111 28.9501 39.3689 28.6712C40.0446 28.3918 40.5562 28.0534 40.9037 27.6561L40.6739 20.6334C40.6522 19.9723 40.4368 19.4463 40.0275 19.0553C39.6181 18.6644 39.0894 18.4795 38.4412 18.5007L38.3603 18.5034L38.3513 18.228L45.7221 17.9868C45.734 16.0767 46.1254 14.3822 46.8964 12.9031C47.7618 11.2574 48.9903 9.96734 50.5818 9.03302C52.1908 8.07979 54.0755 7.56781 56.2361 7.49711C58.3966 7.42641 60.3018 7.81437 61.9516 8.66097C63.6187 9.48865 64.9291 10.6956 65.8825 12.2818C66.5076 13.2916 66.9461 14.422 67.1974 15.6729L67.0122 10.0117C66.9906 9.35084 66.7754 8.8248 66.366 8.43385C65.9566 8.04291 65.4277 7.85804 64.7794 7.87926L64.7528 7.88013L64.7438 7.6047L80.993 7.07298C82.3799 7.04595 83.5945 7.25433 84.6361 7.69814C85.6956 8.123 86.5263 8.73904 87.13 9.54647C87.3568 9.84083 87.5441 10.1562 87.693 10.4924C87.8795 9.42163 88.3887 8.53206 89.2199 7.82386C90.3599 6.84913 91.8841 6.3306 93.7921 6.26817C94.2606 6.25284 94.6394 6.2588 94.9286 6.28617C95.0509 6.29678 95.17 6.3089 95.2868 6.32262C95.4632 6.34339 95.6335 6.36764 95.7972 6.39549C96.087 6.4412 96.4216 6.4762 96.8011 6.5005C97.1805 6.52492 97.6669 6.52736 98.2609 6.50792L106.792 6.22874L106.801 6.50417L106.721 6.50682C106.072 6.52803 105.557 6.74706 105.174 7.16393C104.791 7.5808 104.61 8.11981 104.632 8.78069L104.99 19.7142C105.053 21.6603 105.59 23.1867 106.6 24.2932C107.626 25.3808 108.977 25.8971 110.652 25.8423C112.344 25.787 113.658 25.1742 114.593 24.0041C115.527 22.8156 115.963 21.2666 115.901 19.3571L115.557 8.83678C115.531 8.04732 115.276 7.43076 114.793 6.98703C114.31 6.54331 113.68 6.31578 112.905 6.30443L112.896 6.02901L121.809 5.73735L128.908 21.0819L134.989 5.30608L140.039 5.14082L140.048 5.41625C139.472 5.4351 138.991 5.6254 138.606 5.98726C138.222 6.349 138.057 6.83227 138.113 7.43694L140.024 23.6957C140.134 24.3171 140.438 24.7758 140.934 25.072C141.449 25.3676 141.949 25.5074 142.435 25.4915L142.443 25.7394L134.071 26.0133L134.063 25.7655C134.369 25.7555 134.681 25.6718 135.001 25.5142C135.32 25.3568 135.575 25.1371 135.763 24.8552C135.971 24.5727 136.041 24.2488 135.975 23.8834L134.154 8.72445L127.224 26.6234L119.084 9.19003L118.288 23.7178C118.24 24.4544 118.466 25.0445 118.968 25.4876C119.469 25.9306 120.071 26.159 120.775 26.1728L120.784 26.4481L115.383 26.6249L115.374 26.3496C116.056 26.2904 116.624 26.0146 117.076 25.5219C117.529 25.0291 117.779 24.4236 117.828 23.7052L118.68 8.43128C118.314 7.72644 117.864 7.18062 117.329 6.7938C117.237 6.72207 117.142 6.65715 117.041 6.59895C116.902 6.69421 116.774 6.80318 116.657 6.92605C116.203 7.40042 115.99 8.03229 116.016 8.82176L116.36 19.3421C116.41 20.8844 116.139 22.235 115.546 23.3939C114.971 24.5523 114.109 25.4718 112.96 26.1528C111.828 26.8147 110.461 27.1719 108.859 27.2243C107.274 27.2762 105.887 27.0092 104.696 26.4233C103.505 25.8372 102.567 24.9857 101.882 23.8686C101.213 22.7325 100.854 21.3935 100.804 19.8511L100.446 8.91767C100.424 8.25679 100.209 7.73075 99.7996 7.3398C99.4049 6.96299 98.8995 6.77771 98.2835 6.78372L98.713 12.0622L98.4429 12.0711C98.1355 10.3717 97.5511 9.03997 96.6905 8.07565C95.8293 7.11134 94.8143 6.6483 93.6437 6.6866C92.8155 6.7137 92.1573 6.98337 91.6698 7.49557C91.1996 8.0072 90.9784 8.67616 91.0054 9.50231C91.0288 10.2183 91.2763 10.8995 91.7479 11.5458C92.2374 12.173 93.0631 12.8996 94.2254 13.7254L95.4156 14.5687C96.6329 15.4111 97.596 16.1974 98.3048 16.9278C99.031 17.6392 99.5581 18.3388 99.8875 19.0264C100.216 19.7141 100.394 20.4527 100.42 21.2422C100.459 22.4539 100.197 23.5378 99.6333 24.4935C99.07 25.4494 98.2659 26.2109 97.2208 26.7781C96.1938 27.3263 94.9691 27.6421 93.5482 27.7254C93.0803 27.7407 92.6922 27.735 92.3851 27.7083C92.0959 27.6809 91.8063 27.6445 91.5165 27.5989C91.2267 27.5532 90.8742 27.5188 90.4589 27.4956C90.0436 27.4725 89.4756 27.4726 88.7556 27.4962L87.5756 20.3667L87.9001 20.356C88.2441 22.6055 88.913 24.3297 89.9076 25.5287C90.9194 26.7086 92.1815 27.2738 93.6939 27.2244C94.8101 27.1878 95.7088 26.8368 96.3905 26.1712C97.0715 25.5056 97.3953 24.6587 97.3616 23.6306C97.3472 23.1898 97.2524 22.7703 97.0766 22.3717C96.9194 21.9725 96.6538 21.5493 96.2784 21.102C95.9031 20.6549 95.4097 20.1747 94.7983 19.6616C94.1864 19.1304 93.4277 18.5394 92.5235 17.889L91.388 17.0715C90.0039 16.0691 89.0369 15.1633 88.4876 14.3543C88.3141 14.0987 88.1662 13.835 88.0447 13.563C87.9312 14.2337 87.6902 14.8502 87.3219 15.4125C86.7723 16.2575 85.9655 16.9365 84.9013 17.4491C83.8539 17.9429 82.6012 18.2136 81.1426 18.2614L78.658 18.3427L78.8869 25.3379C78.9086 25.9988 79.1238 26.5248 79.5332 26.9157C79.9426 27.3068 80.4714 27.4917 81.1198 27.4704L81.1735 27.4687L81.1825 27.744L65.4197 28.2598L65.4107 27.9845L65.4372 27.9836C66.0856 27.9624 66.6012 27.7434 66.9842 27.3264C67.3671 26.9095 67.5475 26.3706 67.5259 25.7097L67.3407 20.0521C67.1719 21.321 66.8085 22.4855 66.251 23.5458C65.4028 25.1726 64.1742 26.4626 62.5653 27.4159C60.9738 28.3502 59.0977 28.8527 56.9373 28.9234C54.7767 28.9941 52.8628 28.6156 51.1955 27.7879C49.5457 26.9413 48.2355 25.7344 47.265 24.1671C46.3158 22.5874 45.8044 20.7291 45.7308 18.592C45.612 18.6743 45.5023 18.7701 45.4018 18.8795C45.0189 19.2964 44.8383 19.8354 44.8599 20.4964L45.0897 27.5191C44.7417 27.898 44.176 28.2382 43.3928 28.5396C42.6271 28.822 41.7515 29.0528 40.766 29.232C39.7986 29.4108 38.8287 29.5159 37.8565 29.5477C35.5063 29.6247 33.4457 29.2673 31.6748 28.4754C30.1024 29.3767 28.2559 29.8619 26.1356 29.9313ZM59.4641 27.6552C58.7062 28.1763 57.859 28.4521 56.9229 28.4828C55.9866 28.5134 55.1233 28.2936 54.3328 27.8231C53.5424 27.3528 52.8625 26.6766 52.2928 25.7945C51.7053 24.9132 51.2377 23.8441 50.8901 22.5872C50.5607 21.3298 50.3706 19.93 50.3202 18.3877C50.2697 16.8455 50.3678 15.4362 50.6144 14.1599C50.8784 12.8647 51.2748 11.7582 51.8035 10.8403C52.3142 9.92288 52.9485 9.20371 53.7065 8.68265C54.4645 8.1616 55.3116 7.88576 56.2479 7.85512C57.184 7.82448 58.0474 8.04435 58.8378 8.51474C59.6282 8.98513 60.3172 9.661 60.9048 10.5425C61.4744 11.4245 61.9242 12.5032 62.2543 13.779C62.6018 15.0358 62.801 16.4354 62.8515 17.9777C62.902 19.52 62.7947 20.9295 62.5301 22.2063C62.2834 23.4826 61.9049 24.5794 61.3941 25.4967C60.8655 26.4147 60.2221 27.1342 59.4641 27.6552ZM74.1858 27.0907C73.9414 27.3571 73.6425 27.5428 73.2895 27.6476C72.9305 27.5661 72.62 27.4004 72.3582 27.1505C71.9494 26.7596 71.7336 26.2336 71.712 25.5727L71.1983 9.87474C71.1766 9.21385 71.3576 8.67485 71.74 8.258C71.9849 7.99157 72.2839 7.80592 72.6368 7.70118C72.9959 7.78262 73.3063 7.94833 73.5675 8.1982C73.9769 8.58914 74.1928 9.11516 74.2144 9.77604L74.7281 25.474C74.7497 26.1349 74.5687 26.6739 74.1858 27.0907ZM80.2397 17.9325L78.6463 17.9847L78.3039 7.51936L79.87 7.46811C80.6444 7.44277 81.3269 7.65021 81.9185 8.09038C82.509 8.51212 82.9704 9.11279 83.3022 9.89224C83.6519 10.6711 83.8432 11.5654 83.8763 12.5753C83.9093 13.5851 83.7768 14.4901 83.4788 15.2901C83.1987 16.0896 82.7778 16.7282 82.2168 17.2061C81.6731 17.6651 81.0141 17.9072 80.2397 17.9325Z" fill="white"/>
<path d="M145.25 2.7118C145.285 3.76872 144.473 4.653 143.436 4.68692C142.4 4.72084 141.531 3.89154 141.497 2.83462C141.462 1.7777 142.274 0.893393 143.311 0.859476C144.347 0.82556 145.215 1.65488 145.25 2.7118Z" fill="white"/>
</g>
<defs>
<clipPath id="clip0_1_353">
<rect width="145.32" height="25.8546" fill="white" transform="translate(0.225128 5.3092) rotate(-1.87422)"/>
</clipPath>
</defs>
</svg>
