<svg width="183" height="40" viewBox="0 0 183 40" fill="none" xmlns="http://www.w3.org/2000/svg">
<g clip-path="url(#clip0_1_376)">
<path d="M17.854 39.2471C26.9361 38.9499 34.0566 31.3288 33.7587 22.2244L33.3811 10.6851C33.3381 9.37354 32.7772 8.13267 31.8217 7.2355C30.8662 6.33834 29.5944 5.85837 28.286 5.90118L17.5973 6.25095L17.834 13.4827C17.888 15.1329 18.0442 16.839 18.9535 18.2153C19.6045 19.2016 20.4595 20.0361 21.4604 20.662C22.4614 21.288 23.5849 21.6908 24.7548 21.8432L25.0714 21.884C25.2027 21.9243 25.3181 22.0046 25.4016 22.1139C25.485 22.2232 25.5323 22.3559 25.5368 22.4934C25.5413 22.6309 25.5028 22.7664 25.4267 22.8809C25.3505 22.9954 25.2406 23.0832 25.1122 23.1319L24.799 23.1933C23.1079 23.5274 21.5643 24.3855 20.3861 25.6465C19.208 26.9075 18.4547 28.5077 18.2327 30.2211L18.1921 30.5385C18.152 30.6701 18.0718 30.7858 17.9628 30.8694C17.8538 30.9531 17.7215 31.0005 17.5843 31.005C17.4471 31.0095 17.3119 30.9708 17.1977 30.8945C17.0835 30.8181 16.9959 30.7079 16.9473 30.5792L16.886 30.2652C16.6578 29.1049 16.1833 28.0074 15.4948 27.047C14.8062 26.0867 13.9197 25.286 12.8954 24.6992C11.4661 23.8796 9.75751 23.8349 8.11146 23.8887L0.917166 24.1241C1.63256 32.8313 9.04817 39.5352 17.854 39.2471Z" fill="white"/>
<path d="M0.843509 22.4763L8.05754 22.2402C9.70359 22.1864 11.4056 22.03 12.7783 21.1187C13.8513 20.4064 14.743 19.4521 15.3819 18.3321C16.1992 16.8994 16.2436 15.1866 16.1896 13.5365L15.9529 6.30472L5.26428 6.65449C3.95591 6.6973 2.71817 7.25939 1.82336 8.2171C0.928551 9.17482 0.449963 10.4497 0.492882 11.7613L0.843509 22.4763ZM38.5805 7.21451C38.5948 7.6517 38.4353 8.07667 38.137 8.3959C37.8388 8.71514 37.4262 8.9025 36.9901 8.91678C36.5539 8.93105 36.13 8.77106 35.8115 8.472C35.493 8.17295 35.306 7.75932 35.2917 7.32213C35.2774 6.88493 35.4369 6.45997 35.7352 6.14073C36.0335 5.82149 36.4461 5.63413 36.8822 5.61986C37.3183 5.60558 37.7422 5.76557 38.0607 6.06463C38.3793 6.36368 38.5662 6.77731 38.5805 7.21451ZM174.727 11.0963C179.324 10.9459 181.648 14.0919 181.77 17.8199L181.999 24.8217L177.188 24.9792L176.986 18.8082C176.931 17.1185 176.27 15.744 174.507 15.8017C172.743 15.8594 172.201 17.2733 172.256 18.9629L172.458 25.1331L167.647 25.2905L167.446 19.1204C167.39 17.4307 166.757 16.0553 164.992 16.1131C163.229 16.1708 162.659 17.5855 162.715 19.2752L162.916 25.4454L158.107 25.6028L157.877 18.6009C157.755 14.8729 159.868 11.5817 164.465 11.4313C166.977 11.3491 168.827 12.282 169.709 13.891C170.537 12.226 172.429 11.1699 174.727 11.0947L174.727 11.0963ZM149.321 21.5947C150.871 21.544 151.493 20.1003 151.438 18.4098L151.241 12.4012L156.051 12.2438L156.267 18.8426C156.396 22.7857 154.205 26.1339 149.475 26.2887C144.744 26.4435 142.339 23.2465 142.21 19.3026L141.994 12.7038L146.805 12.5463L147.001 18.555C147.057 20.2447 147.771 21.6454 149.321 21.5947ZM135.373 26.7765C132.354 26.8754 130.368 25.8933 129.152 23.8925L132.563 21.8205C133.072 22.6628 133.807 23.0686 135.01 23.0292C135.999 22.9969 136.441 22.6334 136.427 22.2039C136.374 20.5678 129.373 22.462 129.203 17.2586C129.12 14.7365 131.191 12.6282 134.826 12.5093C138.006 12.4052 139.794 13.9037 140.619 15.3809L137.209 17.4793C136.889 16.6845 135.964 16.2312 135.056 16.261C134.361 16.2837 133.997 16.591 134.01 16.9932C134.064 18.6565 141.069 16.8967 141.234 21.9394C141.327 24.7558 138.634 26.6699 135.373 26.7765ZM118.754 33.0673L113.943 33.2247L113.521 20.3222C113.387 16.2175 116.363 13.1399 120.639 12.9999C124.808 12.8635 128.093 15.9517 128.22 19.8412C128.361 24.133 125.62 27.0693 121.371 27.2083C120.382 27.2407 119.384 26.978 118.541 26.5484L118.754 33.0673ZM120.956 22.6838C122.479 22.6339 123.456 21.4204 123.41 20.025C123.364 18.604 122.311 17.4833 120.787 17.5332C119.264 17.583 118.286 18.7702 118.333 20.192C118.378 21.5866 119.432 22.7337 120.956 22.6838ZM108.437 12.3794C106.86 12.431 105.508 11.1592 105.456 9.57663C105.404 7.99411 106.67 6.63663 108.247 6.58503C109.824 6.53342 111.177 7.80521 111.229 9.38773C111.281 10.9703 110.014 12.3278 108.437 12.3794ZM106.078 13.879L110.889 13.7216L111.328 27.1343L106.517 27.2917L106.078 13.879ZM97.3004 27.996C93.131 28.1324 89.8454 25.0179 89.7173 21.1011C89.59 17.2116 92.6649 13.8889 96.8343 13.7525C101.004 13.616 104.289 16.7306 104.417 20.6201C104.545 24.5369 101.47 27.8596 97.3004 27.996ZM97.1521 23.4627C98.6756 23.4129 99.6524 22.1993 99.6068 20.8039C99.5603 19.383 98.5062 18.2359 96.9827 18.2857C95.4591 18.3356 94.4823 19.5491 94.5288 20.9701C94.5745 22.3655 95.6285 23.5126 97.1521 23.4627ZM81.0689 34.7031C77.7554 34.8115 75.3014 33.4149 73.9861 30.8258L77.8979 28.55C78.3553 29.4485 79.1876 30.361 80.8444 30.3068C82.5825 30.2499 83.6951 29.112 83.766 27.1765C83.1431 27.7612 82.1409 28.2231 80.6181 28.2729C76.9026 28.3945 73.815 25.6225 73.6834 21.5986C73.5561 17.7099 76.6336 14.4399 80.803 14.3035C85.0793 14.1635 88.2502 17.0409 88.3845 21.1447L88.5583 26.4561C88.7163 31.2844 85.4784 34.5588 81.0689 34.7031ZM81.0306 23.7221C82.4735 23.6749 83.537 22.6458 83.4888 21.1705C83.4414 19.7223 82.3146 18.7921 80.8708 18.8394C79.4541 18.8857 78.3634 19.8884 78.4109 21.3374C78.4591 22.8128 79.6139 23.7676 81.0305 23.7213L81.0306 23.7221ZM65.7582 29.0281C61.5888 29.1646 58.3023 26.0501 58.1742 22.1333C58.0469 18.2438 61.1227 14.9211 65.2921 14.7846C69.4607 14.6482 72.7471 17.7627 72.8744 21.6523C73.0025 25.569 69.9276 28.8917 65.7582 29.0281ZM65.6098 24.4949C67.1334 24.445 68.1102 23.2315 68.0645 21.8361C68.018 20.4151 66.964 19.268 65.4404 19.3179C63.9169 19.3677 62.9401 20.5813 62.9866 22.0022C63.0322 23.3977 64.0863 24.5447 65.6098 24.4949ZM49.0423 11.0472L49.4855 24.5926L57.4502 24.332L57.5994 28.8925L48.9663 29.175C45.92 29.2747 44.6381 27.7052 44.5547 25.1566L44.0983 11.209L49.0423 11.0472Z" fill="white"/>
</g>
<defs>
<clipPath id="clip0_1_376">
<rect width="180.982" height="32.9869" fill="white" transform="translate(0.331055 6.81592) rotate(-1.87422)"/>
</clipPath>
</defs>
</svg>
