<svg width="208" height="39" viewBox="0 0 208 39" fill="none" xmlns="http://www.w3.org/2000/svg">
<g clip-path="url(#clip0_1_357)">
<path d="M22.0552 7.72701C20.5389 7.27561 18.9259 7.05722 17.2589 7.11177C14.6476 7.19722 12.2124 7.94242 10.1067 9.18287C10.5357 9.30514 10.9525 9.45742 11.3546 9.63756C13.143 8.72465 15.1542 8.18172 17.2916 8.11178C18.561 8.07024 19.7967 8.19813 20.9775 8.4751C21.3133 8.19604 21.6738 7.94544 22.0552 7.72701Z" fill="white"/>
<path d="M20.2244 9.19196C19.286 9.01433 18.3138 8.93636 17.3196 8.96889C15.5331 9.02735 13.8405 9.43754 12.3055 10.1311C12.6471 10.3341 12.9752 10.5583 13.2874 10.8022C14.5515 10.3072 15.9193 10.0157 17.3523 9.96878C18.089 9.94467 18.8126 9.98622 19.5178 10.0881C19.731 9.77184 19.9674 9.47226 20.2244 9.19196Z" fill="white"/>
<path d="M19.0443 10.8917C18.4997 10.8303 17.9442 10.8074 17.3804 10.8259C16.2071 10.8642 15.081 11.0789 14.0261 11.4434C14.2907 11.6983 14.5405 11.9688 14.7739 12.2534C15.613 12.0032 16.4973 11.8557 17.4132 11.8257C17.8251 11.8123 18.2323 11.8229 18.6334 11.8565C18.7486 11.5241 18.8863 11.2019 19.0443 10.8917Z" fill="white"/>
<path d="M18.3945 12.6986C18.0804 12.6778 17.7623 12.6723 17.4412 12.6828C16.7097 12.7067 16.0002 12.8123 15.3208 12.9905C15.514 13.2793 15.6917 13.5796 15.8529 13.8902C16.376 13.7717 16.9179 13.7009 17.4739 13.6827C17.7321 13.6742 17.9882 13.6773 18.2413 13.6915C18.2709 13.354 18.3224 13.0225 18.3945 12.6986Z" fill="white"/>
<path d="M18.2139 14.549C17.979 14.5351 17.7416 14.532 17.5019 14.5399C17.0641 14.5542 16.636 14.6047 16.2202 14.6886C16.3459 14.9992 16.4554 15.3181 16.548 15.6444C16.8692 15.5863 17.1985 15.5507 17.5345 15.5397C17.7745 15.5319 18.012 15.5367 18.2462 15.5536L18.2158 14.6237C18.2151 14.5988 18.2145 14.5738 18.2139 14.549Z" fill="white"/>
<path d="M18.2746 16.4162C18.0408 16.3956 17.8031 16.3889 17.5627 16.3967C17.2844 16.4059 17.0112 16.4342 16.7444 16.4804C16.8052 16.8055 16.8495 17.1368 16.8763 17.4731C17.1104 17.4306 17.3506 17.4046 17.5955 17.3966C17.8369 17.3887 18.0746 17.3984 18.3077 17.4247L18.2746 16.4162Z" fill="white"/>
<path d="M18.336 18.293C18.104 18.2595 17.8659 18.2459 17.6234 18.2538C17.381 18.2618 17.1443 18.2909 16.9149 18.3395L16.9484 19.3605C17.1747 19.2984 17.4116 19.2617 17.6561 19.2537C17.9007 19.2457 18.1397 19.2668 18.3694 19.314L18.336 18.293Z" fill="white"/>
<path fill-rule="evenodd" clip-rule="evenodd" d="M32.8876 21.7227L32.4989 9.83059C33.7939 9.78822 34.8092 8.6986 34.7666 7.39692L34.7514 6.93272L25.5857 7.23265C21.6616 7.36106 18.5849 10.6628 18.714 14.6075L18.9535 21.9284L18.9646 22.2855C18.9866 22.9562 18.4636 23.5175 17.7964 23.5393C17.1292 23.5611 16.5707 23.0353 16.5487 22.3646L16.4062 18.0078C16.2442 13.0573 12.1203 9.17477 7.19532 9.33593L1.08454 9.5359L1.11259 10.3929C1.12451 10.7573 1.23256 11.0956 1.41148 11.3842L1.14531 11.393L1.17336 12.25C1.18527 12.6142 1.29332 12.9526 1.47225 13.2414L1.20608 13.2501L1.2388 14.25L1.24379 14.2498C1.2758 14.5598 1.37768 14.8478 1.53301 15.0983L1.26685 15.1071L1.29957 16.1069L1.30455 16.1068C1.33656 16.4167 1.43845 16.7047 1.59378 16.9553L1.32761 16.964L1.35566 17.821C1.36757 18.1852 1.47562 18.5236 1.65455 18.8123L1.38838 18.8211L1.41643 19.6781C1.44207 20.4617 1.91266 21.1253 2.57634 21.432L2.62177 22.8203C2.89671 31.2223 9.89552 37.8118 18.2544 37.5383C26.6132 37.2648 33.1664 30.2318 32.8915 21.8298C32.8903 21.7941 32.889 21.7584 32.8876 21.7227ZM31.8851 21.5052L31.822 19.5768C31.8065 19.1034 31.4122 18.7323 30.9413 18.7477L31.0407 21.7832C31.0421 21.8188 31.0429 21.8545 31.0441 21.8903C31.2855 29.2667 25.5322 35.4411 18.1938 35.6813C10.8553 35.9214 4.71065 30.1363 4.46927 22.7599L4.43071 21.5814L3.57807 21.6093L3.61664 22.7878C3.87351 30.6376 10.4125 36.7939 18.2218 36.5383C26.031 36.2828 32.1536 29.7121 31.8967 21.8624C31.8928 21.743 31.8875 21.624 31.8807 21.5054L31.8851 21.5052ZM30.0378 21.5657L29.9746 19.6372C29.9592 19.1639 29.5648 18.7927 29.094 18.8081L29.1933 21.8436C29.1948 21.8792 29.1954 21.9149 29.1966 21.9506C29.4044 28.3015 24.4511 33.6173 18.133 33.824C11.8149 34.0308 6.52446 29.0502 6.31664 22.6994L6.31607 22.6818C6.31587 22.6757 6.31567 22.6697 6.31559 22.6637L6.21731 19.6638L3.41069 19.7557C3.04836 19.7675 2.70541 19.6813 2.4072 19.5207L2.41128 19.6454C2.42935 20.1977 2.88943 20.6307 3.43874 20.6127L5.39272 20.5488L5.46401 22.7273C5.68732 29.5515 11.3719 34.9035 18.161 34.6814C24.9502 34.4592 30.2727 28.7471 30.0494 21.9228C30.0455 21.8034 30.0399 21.6845 30.0326 21.5658L30.0378 21.5657ZM28.1904 21.626L28.1273 19.6977C28.1118 19.2243 27.7175 18.8532 27.2466 18.8686L27.3459 21.9041L27.345 21.9041C27.3465 21.9397 27.3478 21.9753 27.349 22.0111C27.5232 27.3362 23.3698 31.7938 18.072 31.9671C12.7742 32.1405 8.33815 27.964 8.16389 22.6389C8.1635 22.6269 8.16311 22.615 8.16285 22.6032L8.04821 19.1035C8.02368 18.354 7.39941 17.7662 6.65374 17.7906L2.36516 17.931C2.45 18.4133 2.87674 18.7722 3.37785 18.7558L6.2202 18.6628C6.75005 18.6455 7.19357 19.0631 7.211 19.5956L7.31033 22.6311C7.31072 22.643 7.31111 22.6549 7.3115 22.6668C7.50124 28.4654 12.3315 33.0129 18.1003 32.8242C23.869 32.6354 28.3916 27.7818 28.2018 21.9832C28.1979 21.8636 28.1921 21.7447 28.1843 21.6262L28.1904 21.626ZM26.343 21.6864L26.2799 19.7581C26.2644 19.2848 25.8701 18.9136 25.3992 18.929L25.4986 21.9645L25.4977 21.9645C25.4993 22.0001 25.5007 22.0359 25.5019 22.0716C25.6426 26.3713 22.289 29.9702 18.0115 30.1102C13.7341 30.2502 10.1524 26.8781 10.0117 22.5785C10.0113 22.5666 10.0109 22.5547 10.0107 22.5428L9.89603 19.043C9.83795 17.268 8.35938 15.8758 6.59332 15.9336L2.30439 16.0739C2.38923 16.5563 2.81598 16.9152 3.31709 16.8988L6.62126 16.7907C7.91623 16.7483 9.00058 17.7691 9.04318 19.0709L9.1577 22.5707C9.15778 22.573 9.15794 22.5754 9.15802 22.5779C9.15821 22.5839 9.15833 22.5899 9.15853 22.5958L9.15887 22.6063C9.31506 27.3792 13.291 31.1226 18.0394 30.9672C22.7877 30.8119 26.5104 26.8167 26.3542 22.0436C26.3503 21.9239 26.3441 21.805 26.3353 21.6867L26.343 21.6864ZM24.4957 21.747L24.4325 19.8186C24.4171 19.3452 24.0227 18.9741 23.5519 18.9895L23.6512 22.025L23.6499 22.025C23.6517 22.0606 23.6532 22.0963 23.6543 22.1321C23.7615 25.4061 21.208 28.1467 17.9507 28.2533C14.6934 28.3599 11.9662 25.7922 11.859 22.518C11.8586 22.5061 11.8582 22.4942 11.8579 22.4824L11.734 18.6969C11.6475 16.0541 9.44594 13.9813 6.81666 14.0674L2.24363 14.217C2.32846 14.6994 2.75521 15.0582 3.25632 15.0418L6.56049 14.9337C8.87585 14.8579 10.8145 16.6832 10.8907 19.0105L11.0052 22.5103C11.0055 22.5222 11.006 22.534 11.0064 22.5459C11.129 26.2933 14.2506 29.2323 17.9787 29.1103C21.7069 28.9883 24.6297 25.8516 24.507 22.1042C24.5031 21.9844 24.4961 21.8655 24.4862 21.7473L24.4957 21.747ZM22.6483 21.8075L22.5852 19.8791C22.5697 19.4057 22.1754 19.0345 21.7045 19.0499L21.8038 22.0854L21.8021 22.0855C21.8042 22.121 21.8058 22.1566 21.807 22.1924C21.8805 24.4409 20.1269 26.3229 17.89 26.3961C15.6531 26.4693 13.7802 24.7059 13.7066 22.4575L13.7059 22.4367C13.7058 22.4335 13.7057 22.4303 13.7058 22.4271L13.7056 22.4217L13.5699 18.2793C13.4563 14.8081 10.5647 12.0857 7.11133 12.1987L2.18286 12.36C2.2677 12.8423 2.69444 13.2012 3.19555 13.1848L6.78393 13.0674C9.96261 12.9633 12.6242 15.4692 12.7288 18.6644L12.8527 22.4498C12.8529 22.4618 12.8534 22.4736 12.8538 22.4855C12.9429 25.2072 15.2102 27.3419 17.918 27.2533C20.6257 27.1647 22.7486 24.8863 22.6595 22.1646C22.6556 22.0446 22.6474 21.9256 22.6351 21.8079L22.6483 21.8075ZM20.8009 21.8678L20.7378 19.9395C20.7223 19.4661 20.3279 19.095 19.8571 19.1104L19.9565 22.1459L19.9594 22.253C19.9994 23.4758 19.0456 24.4994 17.8292 24.5392C16.6126 24.579 15.594 23.62 15.554 22.3971L15.4114 18.0403C15.2675 13.6421 11.6036 10.1926 7.22804 10.3358L2.12209 10.5029C2.20693 10.9853 2.63367 11.3441 3.13478 11.3277L7.07837 11.1987C11.0812 11.0677 14.4328 14.2232 14.5645 18.2467L14.7 22.3893C14.7003 22.4012 14.7008 22.4131 14.7012 22.425C14.7567 24.1212 16.1697 25.4514 17.8572 25.3962C19.5447 25.341 20.8677 23.9212 20.8121 22.225C20.8082 22.1042 20.7974 21.9852 20.78 21.8685L20.8009 21.8678ZM29.2727 9.0604C29.2885 9.54358 29.6911 9.92258 30.1718 9.90685C30.6525 9.89113 31.0294 9.48661 31.0136 9.00343C30.9978 8.52025 30.5953 8.14124 30.1146 8.15697C29.6339 8.1727 29.2569 8.57722 29.2727 9.0604Z" fill="#111827"/>
<path d="M51.9457 20.7788C51.9461 20.7925 51.9466 20.8062 51.947 20.8199C51.9607 20.8195 51.9743 20.819 51.988 20.8186L59.967 20.5575L60.1648 26.6035L43.6544 27.1438C43.6266 26.2938 43.5988 25.4437 43.571 24.5938C43.5432 23.7437 43.5154 22.8938 43.4875 22.0437C43.4593 21.18 43.4312 20.3231 43.4034 19.4732C43.3756 18.6231 43.3478 17.7731 43.32 16.9231C43.2917 16.0594 43.2634 15.1957 43.2352 14.3319C43.2065 13.4545 43.178 12.5839 43.1497 11.7202L51.6402 11.4424C51.6657 12.2238 51.6913 13.0053 51.7169 13.7868C51.742 14.5545 51.7674 15.3291 51.7929 16.1106C51.8185 16.892 51.8441 17.6735 51.8696 18.455C51.8948 19.2227 51.9201 19.9973 51.9457 20.7788Z" fill="white"/>
<path d="M69.8588 26.9038C69.0131 26.9315 68.1928 26.8966 67.3976 26.7991C66.6025 26.7016 65.86 26.5406 65.1699 26.3162C64.4794 26.0779 63.8483 25.7761 63.2766 25.4105C62.7048 25.0449 62.2128 24.615 61.8007 24.1207C61.3881 23.6126 61.0621 23.04 60.8228 22.4028C60.583 21.7519 60.4501 21.0288 60.4241 20.2336C60.3936 19.3013 60.5163 18.4602 60.7921 17.71C61.0812 16.9457 61.4961 16.2733 62.0369 15.6929C62.5914 15.1121 63.2444 14.624 63.9962 14.2289C64.7474 13.8201 65.577 13.5116 66.485 13.3034C67.4062 13.0811 68.3782 12.9533 69.4012 12.9198C70.6833 12.8778 71.8816 12.9896 72.9963 13.255C74.1241 13.5063 75.1137 13.9132 75.965 14.4754C76.8295 15.0236 77.5145 15.7286 78.0207 16.5904C78.5269 17.4522 78.7987 18.4657 78.8369 19.6311C78.875 20.7964 78.67 21.8256 78.2213 22.7187C77.772 23.598 77.1345 24.3463 76.3082 24.9635C75.495 25.5665 74.534 26.0303 73.425 26.3548C72.3296 26.6789 71.1409 26.8618 69.8588 26.9038ZM69.7009 21.4535C70.5466 21.4258 71.1413 21.2417 71.4851 20.901C71.829 20.5603 71.9946 20.1981 71.9821 19.8143C71.9762 19.636 71.9295 19.4591 71.8418 19.2835C71.7542 19.108 71.6192 18.9478 71.4369 18.8027C71.2547 18.6577 71.0122 18.549 70.7095 18.4766C70.4063 18.3904 70.0365 18.3545 69.6 18.3687C69.1635 18.383 68.79 18.4433 68.4795 18.5495C68.182 18.6416 67.9404 18.7662 67.7544 18.9233C67.582 19.0799 67.4578 19.2486 67.3818 19.4295C67.3058 19.6104 67.2709 19.7969 67.2772 19.9888C67.2835 20.1807 67.3307 20.3714 67.4188 20.5606C67.5064 20.7361 67.6483 20.8962 67.8441 21.0407C68.0395 21.1716 68.2889 21.2801 68.5921 21.3662C68.8948 21.4387 69.2644 21.4678 69.7009 21.4535Z" fill="white"/>
<path d="M97.1005 12.631C97.1548 14.2899 97.2093 15.9556 97.264 17.6282C97.3188 19.3009 97.3735 20.9735 97.4282 22.6461C97.4525 23.3864 97.3042 24.0637 96.9826 24.6781C96.6614 25.2788 96.2077 25.8152 95.6224 26.2872C95.0376 26.773 94.3547 27.1797 93.573 27.5072C92.7921 27.8347 91.9466 28.0888 91.0382 28.2695C90.1294 28.464 89.2051 28.5765 88.2637 28.6073C87.0635 28.6466 85.8727 28.5552 84.6912 28.3331C83.5097 28.111 82.4466 27.7546 81.5017 27.264L81.3947 23.9942C81.799 24.2417 82.2844 24.466 82.8508 24.6671C83.4304 24.854 84.0427 24.9987 84.6877 25.1011C85.3327 25.2035 85.9689 25.2444 86.5962 25.2239C87.1146 25.2069 87.5973 25.1431 88.0445 25.0324C88.5047 24.9075 88.908 24.7297 89.2557 24.4987C89.6035 24.2677 89.8733 23.9706 90.066 23.6075C90.2594 23.2444 90.3472 22.8023 90.3301 22.2813L90.2056 18.4768C90.1976 18.2301 90.1429 18.0191 90.0417 17.844C89.9406 17.6689 89.7921 17.5296 89.5978 17.4262C89.4167 17.3086 89.2019 17.2265 88.9549 17.1796C88.7067 17.1191 88.4331 17.0938 88.1327 17.1036C87.7241 17.117 87.3573 17.1839 87.034 17.3042C86.7231 17.4105 86.4829 17.5693 86.3117 17.7808C86.1414 17.9922 86.0612 18.2488 86.071 18.5504C86.0813 18.8657 86.1786 19.1302 86.3629 19.3437C86.5615 19.5568 86.8191 19.7199 87.1372 19.833C87.4541 19.9324 87.8176 19.9754 88.2263 19.9621C89.3175 19.9264 89.9802 19.5067 90.213 18.7031L89.1437 23.5759C88.5821 23.9374 88.0228 24.1616 87.4658 24.2485C86.9088 24.3353 86.3439 24.3881 85.771 24.4068C84.9393 24.434 84.1367 24.3299 83.3646 24.0945C82.5921 23.8452 81.897 23.4837 81.2807 23.0098C80.6776 22.5217 80.187 21.927 79.8095 21.2257C79.4444 20.5102 79.2472 19.6932 79.2172 18.7747C79.197 18.1577 79.2601 17.586 79.4065 17.0597C79.5537 16.5334 79.7695 16.046 80.0556 15.5975C80.3409 15.1489 80.6833 14.7535 81.0812 14.411C81.493 14.0544 81.9406 13.7516 82.4241 13.5024C82.9212 13.2528 83.4476 13.0641 84.0033 12.9361C84.5721 12.7939 85.1497 12.7133 85.7362 12.6941C86.0086 12.6852 86.3029 12.6961 86.6176 12.727C86.9325 12.7442 87.2476 12.7887 87.5643 12.8607C87.8935 12.9186 88.2109 13.0111 88.5151 13.1384C88.8195 13.252 89.0971 13.4007 89.3493 13.5846C89.614 13.7543 89.8399 13.9666 90.0255 14.2213C90.04 14.2482 90.0472 14.2617 90.0472 14.2617C90.0609 14.2613 90.0675 14.2542 90.067 14.2405C90.0666 14.2268 90.0661 14.2131 90.0657 14.1993C90.0607 14.0486 90.0535 13.8292 90.0441 13.5413C90.0343 13.2397 90.0269 13.0135 90.0219 12.8626L97.1005 12.631Z" fill="white"/>
<path d="M107.34 25.6773C106.495 25.705 105.674 25.6701 104.879 25.5726C104.084 25.4751 103.341 25.3142 102.651 25.0897C101.961 24.8515 101.33 24.5497 100.758 24.1841C100.186 23.8185 99.6942 23.3886 99.2818 22.8942C98.8697 22.3862 98.5434 21.8136 98.3044 21.1763C98.0641 20.5254 97.9314 19.8024 97.9054 19.0072C97.8749 18.0749 97.9973 17.2337 98.2735 16.4835C98.5629 15.7192 98.9773 15.0469 99.5181 14.4665C100.073 13.8857 100.726 13.3976 101.478 13.0025C102.229 12.5936 103.058 12.2851 103.966 12.077C104.888 11.8547 105.859 11.7268 106.882 11.6934C108.164 11.6514 109.363 11.7631 110.477 12.0286C111.605 12.2799 112.595 12.6867 113.446 13.249C114.311 13.7971 114.996 14.5022 115.502 15.364C116.009 16.2258 116.28 17.2393 116.319 18.4046C116.357 19.57 116.152 20.5992 115.703 21.4922C115.254 22.3716 114.616 23.1198 113.789 23.7371C112.976 24.34 112.015 24.8039 110.906 25.1284C109.811 25.4524 108.622 25.6354 107.34 25.6773ZM107.182 20.2271C108.028 20.1994 108.623 20.0152 108.966 19.6746C109.31 19.3339 109.476 18.9717 109.463 18.5878C109.457 18.4096 109.411 18.2326 109.323 18.0571C109.236 17.8815 109.101 17.7213 108.918 17.5763C108.736 17.4313 108.494 17.3225 108.191 17.2501C107.888 17.1639 107.518 17.128 107.081 17.1423C106.645 17.1566 106.272 17.2168 105.961 17.3231C105.664 17.4151 105.422 17.5397 105.236 17.6968C105.064 17.8534 104.939 18.0222 104.863 18.2031C104.787 18.3839 104.752 18.5704 104.759 18.7623C104.765 18.9543 104.812 19.1449 104.9 19.3342C104.988 19.5097 105.13 19.6697 105.326 19.8143C105.521 19.9452 105.77 20.0537 106.073 20.1398C106.376 20.2123 106.746 20.2414 107.182 20.2271Z" fill="white"/>
<path d="M117.139 24.7392C117.118 24.1085 117.098 23.4847 117.077 22.8678C117.057 22.2372 117.036 21.6133 117.016 20.9964C116.996 20.3657 116.975 19.742 116.955 19.125C116.946 18.8645 116.938 18.604 116.929 18.3436C116.921 18.083 116.912 17.8226 116.904 17.5621C117.695 17.5362 118.479 17.5105 119.257 17.4851C120.047 17.4592 120.839 17.4333 121.63 17.4074C122.421 17.3815 123.205 17.3559 123.982 17.3304C124.008 18.1256 124.034 18.9208 124.06 19.7159C124.086 20.5111 124.113 21.3132 124.139 22.1221C124.165 22.9172 124.191 23.7124 124.217 24.5076L117.139 24.7392ZM116.904 17.5621C116.873 16.6298 116.843 15.6975 116.812 14.7653C116.782 13.833 116.751 12.9076 116.721 11.989L123.8 11.7574C123.815 12.2098 123.83 12.6623 123.844 13.1147C123.859 13.5671 123.874 14.0195 123.889 14.472C123.904 14.9244 123.918 15.3768 123.933 15.8292C123.933 15.8292 123.927 15.8363 123.914 15.8505C122.749 16.1356 121.577 16.421 120.398 16.7066C119.234 16.9918 118.069 17.2769 116.904 17.5621Z" fill="white"/>
<path d="M143.848 17.4626C143.882 18.4908 143.7 19.4232 143.305 20.2596C142.909 21.0961 142.359 21.8209 141.656 22.434C140.965 23.0468 140.176 23.5255 139.285 23.8703C138.395 24.2013 137.466 24.3827 136.498 24.4144C136.007 24.4305 135.494 24.3992 134.959 24.3206C134.437 24.2554 133.929 24.1485 133.432 24.0001C132.949 23.8375 132.513 23.639 132.123 23.4047C132.123 23.4047 132.116 23.4049 132.102 23.4054C132.102 23.4054 132.095 23.4056 132.082 23.4061C132.082 23.4061 132.082 23.4129 132.082 23.4267L132.19 26.717L125.111 26.9486C125.084 26.0987 125.056 25.2555 125.029 24.4192C125.001 23.5692 124.973 22.726 124.946 21.8897C124.918 21.0397 124.891 20.1965 124.863 19.3603C124.835 18.5102 124.808 17.667 124.78 16.8308C124.753 15.9807 124.725 15.1376 124.698 14.3013C124.67 13.4513 124.642 12.5944 124.613 11.7307L131.692 11.4991C131.716 12.2257 131.739 12.9386 131.762 13.6378C131.785 14.337 131.808 15.0362 131.831 15.7354C131.854 16.4346 131.877 17.1544 131.901 17.8947C131.91 18.1552 131.985 18.3792 132.128 18.5667C132.271 18.7541 132.46 18.9058 132.696 19.0216C132.932 19.1373 133.194 19.2249 133.483 19.284C133.785 19.3291 134.086 19.3467 134.386 19.3369C134.918 19.3195 135.352 19.2297 135.687 19.0678C136.037 18.9054 136.29 18.705 136.446 18.4665C136.616 18.2277 136.697 17.9849 136.689 17.738C136.681 17.5187 136.627 17.3215 136.526 17.1464C136.424 16.9576 136.276 16.7977 136.08 16.6669C135.884 16.5223 135.635 16.4138 135.332 16.3414C135.029 16.2689 134.68 16.2391 134.285 16.2521C133.712 16.2708 133.204 16.3904 132.76 16.6108C132.331 16.8307 132.048 17.1762 131.914 17.6473L133.349 11.4448C133.796 11.3204 134.236 11.2305 134.672 11.1751C135.106 11.106 135.535 11.0645 135.958 11.0507C136.79 11.0235 137.591 11.0934 138.361 11.2603C139.145 11.4267 139.856 11.6848 140.496 12.0344C141.149 12.3837 141.723 12.8247 142.219 13.3574C142.714 13.8764 143.101 14.4814 143.384 15.1721C143.665 15.8491 143.82 16.6126 143.848 17.4626Z" fill="white"/>
<path d="M144.181 15.1666C144.156 14.3851 144.352 13.6993 144.769 13.1092C145.201 12.5187 145.792 12.019 146.544 11.6102C147.294 11.1876 148.15 10.8645 149.113 10.6408C150.075 10.4172 151.081 10.2882 152.131 10.2538C153.427 10.2114 154.631 10.2886 155.744 10.4856C156.869 10.6821 157.889 10.9575 158.802 11.3119L158.958 16.0829C158.566 15.8075 158.054 15.5773 157.42 15.3922C156.799 15.2066 156.139 15.0703 155.44 14.9835C154.755 14.8961 154.105 14.8625 153.491 14.8826C153.082 14.8959 152.708 14.9356 152.368 15.0016C152.043 15.0535 151.779 15.1307 151.577 15.2334C151.39 15.3356 151.299 15.4621 151.303 15.6129C151.306 15.6951 151.335 15.756 151.391 15.7953C151.461 15.8342 151.557 15.8585 151.68 15.8682C151.803 15.8779 151.961 15.8796 152.151 15.8734C152.465 15.8631 152.745 15.854 152.99 15.8459C153.236 15.8379 153.508 15.829 153.809 15.8191C154.49 15.7968 155.174 15.8225 155.859 15.8961C156.558 15.9556 157.191 16.1065 157.758 16.3486C158.34 16.5904 158.808 16.9525 159.166 17.4349C159.523 17.9036 159.714 18.5355 159.74 19.3307C159.767 20.167 159.559 20.8874 159.115 21.4921C158.683 22.0827 158.078 22.576 157.299 22.9721C156.533 23.3539 155.662 23.6432 154.685 23.8398C153.722 24.0361 152.715 24.1514 151.666 24.1858C150.425 24.2264 149.193 24.15 147.971 23.9567C146.763 23.7629 145.722 23.4538 144.849 23.0295L144.684 18.0117C145.038 18.3707 145.531 18.6633 146.167 18.8895C146.816 19.1016 147.511 19.2574 148.251 19.3567C149.005 19.4418 149.709 19.4736 150.364 19.4522C150.786 19.4383 151.168 19.4053 151.508 19.353C151.846 19.287 152.11 19.2029 152.298 19.1007C152.499 18.9844 152.597 18.8438 152.592 18.6793C152.589 18.6108 152.567 18.5634 152.525 18.5374C152.483 18.5114 152.414 18.493 152.319 18.4824C152.236 18.4714 152.12 18.4683 151.971 18.4732C151.765 18.48 151.554 18.4869 151.336 18.494C151.118 18.5012 150.92 18.5076 150.742 18.5134C150.266 18.529 149.733 18.5327 149.146 18.5245C148.572 18.5021 147.996 18.4454 147.42 18.3545C146.843 18.2499 146.312 18.082 145.826 17.8508C145.354 17.6055 144.967 17.2682 144.666 16.8388C144.366 16.3958 144.203 15.8384 144.181 15.1666Z" fill="white"/>
<path d="M176.403 10.036C176.433 10.9545 176.463 11.8799 176.494 12.8122C176.524 13.7445 176.555 14.6767 176.585 15.609C176.611 16.4042 176.638 17.2062 176.664 18.0151C176.69 18.8103 176.716 19.6054 176.742 20.4006C176.768 21.1958 176.794 21.991 176.82 22.7861L169.741 23.0178C169.723 22.442 169.704 21.8593 169.684 21.2698C169.665 20.6802 169.646 20.0907 169.626 19.5012C169.607 18.898 169.588 18.3153 169.569 17.7532C169.528 16.4782 169.487 15.2306 169.447 14.0104C169.406 12.7765 169.366 11.5289 169.324 10.2676L176.403 10.036ZM167.155 10.3386C167.179 11.0652 167.203 11.7986 167.227 12.539C167.251 13.2657 167.275 13.9922 167.299 14.7189C167.323 15.4455 167.347 16.179 167.371 16.9193C167.381 17.2209 167.436 17.4661 167.538 17.6549C167.653 17.8296 167.794 17.9554 167.96 18.0323C168.14 18.095 168.325 18.1233 168.516 18.1171C168.707 18.1108 168.897 18.0702 169.086 17.9955C169.288 17.9202 169.449 17.8326 169.569 17.7326L168.098 22.8657C167.722 23.0701 167.257 23.2432 166.702 23.3848C166.16 23.5261 165.59 23.6065 164.99 23.6261C164.444 23.644 163.903 23.5931 163.366 23.4734C162.83 23.3674 162.339 23.1708 161.893 22.8834C161.46 22.5957 161.106 22.2092 160.83 21.7241C160.556 21.2391 160.406 20.6264 160.382 19.8861C160.349 18.899 160.317 17.9119 160.285 16.9247C160.252 15.9376 160.22 14.9505 160.188 13.9634C160.169 13.4013 160.151 12.8392 160.133 12.2771C160.114 11.7013 160.095 11.1323 160.077 10.5702L167.155 10.3386Z" fill="white"/>
<path d="M177.636 22.7594C177.604 21.786 177.572 20.8126 177.54 19.8392C177.508 18.8659 177.477 17.8924 177.445 16.919C177.412 15.9319 177.38 14.9516 177.349 13.9783C177.327 13.3065 177.305 12.6416 177.283 11.9835C177.262 11.3254 177.24 10.6674 177.219 10.0093L184.298 9.77759C184.328 10.6825 184.357 11.5873 184.387 12.4922C184.416 13.3833 184.445 14.2813 184.475 15.1861C184.515 16.4063 184.555 17.6333 184.595 18.8673C184.635 20.0874 184.675 21.3076 184.715 22.5278L177.636 22.7594ZM187.007 22.4528C186.972 21.3834 186.936 20.3004 186.9 19.2036C186.864 18.1068 186.829 17.0237 186.794 15.9543C186.781 15.5567 186.67 15.279 186.459 15.1212C186.263 14.963 186.028 14.8814 185.755 14.8766C185.481 14.8719 185.23 14.9144 185.002 15.0043C184.786 15.0936 184.652 15.1803 184.6 15.2644L186.064 9.9257C187.046 9.45436 188.115 9.19983 189.275 9.16189C189.848 9.14314 190.395 9.19383 190.918 9.31394C191.441 9.43404 191.912 9.63139 192.331 9.90591C192.762 10.18 193.103 10.5532 193.35 11.0254C193.611 11.4835 193.752 12.0416 193.774 12.6997C193.787 13.0973 193.8 13.5017 193.813 13.913C193.827 14.3243 193.84 14.7287 193.853 15.1263C193.859 15.3183 193.866 15.517 193.873 15.7227C193.879 15.9146 193.885 16.1065 193.891 16.2985C193.898 16.4904 193.904 16.6892 193.911 16.8949C193.94 17.7723 193.969 18.6566 193.998 19.5478C194.027 20.4389 194.056 21.33 194.085 22.2212L187.007 22.4528ZM196.254 22.1502C196.219 21.0808 196.184 19.9978 196.148 18.901C196.112 17.8042 196.076 16.7211 196.041 15.6517C196.028 15.2541 195.917 14.9764 195.707 14.8186C195.511 14.6604 195.275 14.5788 195.002 14.574C194.729 14.5693 194.478 14.6118 194.249 14.7017C194.033 14.791 193.9 14.8777 193.848 14.9618L195.107 9.62981C195.59 9.39436 196.11 9.21265 196.666 9.08466C197.235 8.95623 197.799 8.88294 198.359 8.86464C199.149 8.83876 199.891 8.93802 200.58 9.16247C201.284 9.38647 201.856 9.75892 202.297 10.2797C202.751 10.8001 202.992 11.506 203.021 12.3971L203.333 21.9186L196.254 22.1502Z" fill="white"/>
<path d="M206.396 6.13654C206.434 7.2751 205.545 8.22814 204.412 8.26521C203.28 8.30226 202.331 7.40934 202.294 6.27078C202.257 5.13221 203.145 4.17917 204.277 4.14212C205.41 4.10505 206.359 4.99797 206.396 6.13654Z" fill="white"/>
</g>
<defs>
<clipPath id="clip0_1_357">
<rect width="205.945" height="31.2038" fill="white" transform="translate(0.952881 7.16284) rotate(-1.87422)"/>
</clipPath>
</defs>
</svg>
