<svg width="224" height="67" viewBox="0 0 224 67" fill="none" xmlns="http://www.w3.org/2000/svg">
<path d="M215.324 66.4556H8.28168C3.64394 66.4556 0 62.8116 0 58.1739V8.48382C0 3.84609 3.64394 0.202148 8.28168 0.202148H215.324C219.961 0.202148 223.605 3.84609 223.605 8.48382V58.1739C223.605 62.8116 219.961 66.4556 215.324 66.4556Z" fill="black"/>
<path d="M215.324 1.52722C219.133 1.52722 222.28 4.67425 222.28 8.48382V58.1739C222.28 61.9835 219.133 65.1305 215.324 65.1305H8.28168C4.47211 65.1305 1.32507 61.9835 1.32507 58.1739V8.48382C1.32507 4.67425 4.47211 1.52722 8.28168 1.52722H215.324ZM215.324 0.202148H8.28168C3.64394 0.202148 0 4.01172 0 8.48382V58.1739C0 62.8116 3.64394 66.4556 8.28168 66.4556H215.324C219.961 66.4556 223.605 62.8116 223.605 58.1739V8.48382C223.605 4.01172 219.961 0.202148 215.324 0.202148Z" fill="#A6A6A6"/>
<path d="M78.5102 17.0968C78.5102 18.4218 78.179 19.5813 77.3508 20.4094C76.357 21.4032 75.1976 21.9001 73.7069 21.9001C72.2162 21.9001 71.0567 21.4032 70.0629 20.4094C69.0691 19.4156 68.5722 18.2562 68.5722 16.7655C68.5722 15.2748 69.0691 14.1154 70.0629 13.1216C71.0567 12.1278 72.2162 11.6309 73.7069 11.6309C74.3694 11.6309 75.0319 11.7965 75.6945 12.1278C76.357 12.459 76.8539 12.7903 77.1852 13.2872L76.357 14.1154C75.6945 13.2872 74.8663 12.9559 73.7069 12.9559C72.7131 12.9559 71.7193 13.2872 71.0567 14.1154C70.2286 14.7779 69.8973 15.7717 69.8973 16.9311C69.8973 18.0906 70.2286 19.0844 71.0567 19.7469C71.8849 20.4094 72.7131 20.9063 73.7069 20.9063C74.8663 20.9063 75.6945 20.5751 76.5226 19.7469C77.0195 19.25 77.3508 18.5875 77.3508 17.7593H73.7069V16.4342H78.5102V17.0968ZM86.1294 12.9559H81.6573V16.103H85.7981V17.2624H81.6573V20.4094H86.1294V21.7345H80.3322V11.7965H86.1294V12.9559ZM91.5953 21.7345H90.2702V12.9559H87.4545V11.7965H94.4111V12.9559H91.5953V21.7345ZM99.2144 21.7345V11.7965H100.54V21.7345H99.2144ZM106.171 21.7345H104.846V12.9559H102.03V11.7965H108.821V12.9559H106.005V21.7345H106.171ZM121.906 20.4094C120.912 21.4032 119.753 21.9001 118.262 21.9001C116.772 21.9001 115.612 21.4032 114.618 20.4094C113.625 19.4156 113.128 18.2562 113.128 16.7655C113.128 15.2748 113.625 14.1154 114.618 13.1216C115.612 12.1278 116.772 11.6309 118.262 11.6309C119.753 11.6309 120.912 12.1278 121.906 13.1216C122.9 14.1154 123.397 15.2748 123.397 16.7655C123.397 18.2562 122.9 19.4156 121.906 20.4094ZM115.612 19.5813C116.275 20.2438 117.268 20.7407 118.262 20.7407C119.256 20.7407 120.25 20.4094 120.912 19.5813C121.575 18.9187 122.072 17.9249 122.072 16.7655C122.072 15.6061 121.741 14.6123 120.912 13.9497C120.25 13.2872 119.256 12.7903 118.262 12.7903C117.268 12.7903 116.275 13.1216 115.612 13.9497C114.95 14.6123 114.453 15.6061 114.453 16.7655C114.453 17.9249 114.784 18.9187 115.612 19.5813ZM125.219 21.7345V11.7965H126.71L131.513 19.5813V11.7965H132.838V21.7345H131.513L126.378 13.6185V21.7345H125.219Z" fill="white" stroke="white" stroke-width="1.75506" stroke-miterlimit="10"/>
<path d="M112.797 36.3092C108.821 36.3092 105.674 39.2906 105.674 43.4314C105.674 47.4066 108.821 50.5537 112.797 50.5537C116.772 50.5537 119.919 47.5723 119.919 43.4314C119.919 39.125 116.772 36.3092 112.797 36.3092ZM112.797 47.5723C110.643 47.5723 108.821 45.7503 108.821 43.2658C108.821 40.7813 110.643 38.9593 112.797 38.9593C114.95 38.9593 116.772 40.6157 116.772 43.2658C116.772 45.7503 114.95 47.5723 112.797 47.5723ZM97.3926 36.3092C93.4174 36.3092 90.2704 39.2906 90.2704 43.4314C90.2704 47.4066 93.4174 50.5537 97.3926 50.5537C101.368 50.5537 104.515 47.5723 104.515 43.4314C104.515 39.125 101.368 36.3092 97.3926 36.3092ZM97.3926 47.5723C95.2394 47.5723 93.4174 45.7503 93.4174 43.2658C93.4174 40.7813 95.2394 38.9593 97.3926 38.9593C99.5459 38.9593 101.368 40.6157 101.368 43.2658C101.368 45.7503 99.5459 47.5723 97.3926 47.5723ZM79.0073 38.4624V41.4438H86.1296C85.9639 43.1002 85.3014 44.4252 84.4732 45.2534C83.4794 46.2472 81.8231 47.4066 79.0073 47.4066C74.5352 47.4066 71.2225 43.9283 71.2225 39.4562C71.2225 34.9841 74.7008 31.5058 79.0073 31.5058C81.3262 31.5058 83.1482 32.4996 84.4732 33.6591L86.6265 31.5058C84.8045 29.8495 82.4856 28.5244 79.1729 28.5244C73.2101 28.5244 68.0755 33.4934 68.0755 39.4562C68.0755 45.419 73.2101 50.388 79.1729 50.388C82.4856 50.388 84.8045 49.3942 86.7921 47.241C88.7797 45.2534 89.4422 42.4376 89.4422 40.2844C89.4422 39.6219 89.4422 38.9593 89.2766 38.4624H79.0073ZM154.205 40.7813C153.542 39.125 151.886 36.3092 148.242 36.3092C144.598 36.3092 141.617 39.125 141.617 43.4314C141.617 47.4066 144.598 50.5537 148.573 50.5537C151.72 50.5537 153.708 48.5661 154.371 47.4066L152.052 45.7503C151.224 46.9097 150.23 47.7379 148.573 47.7379C146.917 47.7379 145.923 47.0754 145.095 45.5847L154.536 41.6095L154.205 40.7813ZM144.598 43.1002C144.598 40.45 146.751 38.9593 148.242 38.9593C149.402 38.9593 150.561 39.6219 150.892 40.45L144.598 43.1002ZM136.813 49.8911H139.96V29.1869H136.813V49.8911ZM131.844 37.7999C131.016 36.9717 129.691 36.1436 128.035 36.1436C124.557 36.1436 121.244 39.2906 121.244 43.2658C121.244 47.241 124.391 50.2224 128.035 50.2224C129.691 50.2224 131.016 49.3942 131.679 48.5661H131.844V49.5599C131.844 52.21 130.354 53.7007 128.035 53.7007C126.213 53.7007 124.888 52.3756 124.557 51.2162L121.906 52.3756C122.735 54.1976 124.722 56.5165 128.2 56.5165C131.844 56.5165 134.826 54.3632 134.826 49.2286V36.6405H131.844V37.7999ZM128.2 47.5723C126.047 47.5723 124.225 45.7503 124.225 43.2658C124.225 40.7813 126.047 38.9593 128.2 38.9593C130.354 38.9593 132.01 40.7813 132.01 43.2658C132.01 45.7503 130.354 47.5723 128.2 47.5723ZM168.615 29.1869H161.162V49.8911H164.309V42.1064H168.615C172.093 42.1064 175.406 39.6219 175.406 35.6467C175.406 31.6714 172.093 29.1869 168.615 29.1869ZM168.781 39.125H164.309V32.0027H168.781C171.1 32.0027 172.425 33.9903 172.425 35.481C172.259 37.303 170.934 39.125 168.781 39.125ZM187.829 36.1436C185.51 36.1436 183.191 37.1374 182.363 39.2906L185.178 40.45C185.841 39.2906 186.835 38.9593 187.994 38.9593C189.651 38.9593 191.141 39.9531 191.307 41.6095V41.7751C190.81 41.4438 189.485 40.9469 188.16 40.9469C185.178 40.9469 182.197 42.6033 182.197 45.5847C182.197 48.4004 184.682 50.2224 187.332 50.2224C189.485 50.2224 190.479 49.2286 191.307 48.2348H191.472V49.8911H194.454V41.9407C194.123 38.2968 191.307 36.1436 187.829 36.1436ZM187.497 47.5723C186.503 47.5723 185.013 47.0754 185.013 45.7503C185.013 44.094 186.835 43.5971 188.325 43.5971C189.651 43.5971 190.313 43.9283 191.141 44.2596C190.81 46.2472 189.154 47.5723 187.497 47.5723ZM204.889 36.6405L201.41 45.5847H201.245L197.601 36.6405H194.288L199.754 49.2286L196.607 56.1852H199.754L208.201 36.6405H204.889ZM177.062 49.8911H180.209V29.1869H177.062V49.8911Z" fill="white"/>
<path d="M17.2261 12.6245C16.7292 13.1214 16.5636 13.9496 16.5636 14.9434V51.5484C16.5636 52.5422 16.8948 53.3704 17.3917 53.8673L17.5574 54.0329L38.0959 33.4943V33.1631L17.2261 12.6245Z" fill="url(#paint0_linear_1_578)"/>
<path d="M44.7214 40.4514L37.9304 33.6604V33.1635L44.7214 26.3726L44.887 26.5382L53.003 31.1759C55.3219 32.501 55.3219 34.6542 53.003 35.9793L44.7214 40.4514Z" fill="url(#paint1_linear_1_578)"/>
<path d="M44.8871 40.2852L37.9304 33.3286L17.2263 54.0328C18.0544 54.861 19.2139 54.861 20.7046 54.1984L44.8871 40.2852Z" fill="url(#paint2_linear_1_578)"/>
<path d="M44.8871 26.3726L20.7046 12.625C19.2139 11.7969 18.0544 11.9625 17.2263 12.7907L37.9304 33.3292L44.8871 26.3726Z" fill="url(#paint3_linear_1_578)"/>
<path opacity="0.2" d="M44.7214 40.1196L20.7046 53.7016C19.3795 54.5297 18.2201 54.3641 17.3919 53.7016L17.2263 53.8672L17.3919 54.0328C18.2201 54.6954 19.3795 54.861 20.7046 54.0328L44.7214 40.1196Z" fill="black"/>
<path opacity="0.12" d="M17.2261 53.7015C16.7292 53.2046 16.5636 52.3765 16.5636 51.3827V51.5483C16.5636 52.5421 16.8948 53.3703 17.3917 53.8672V53.7015H17.2261ZM53.0029 35.4818L44.7213 40.1196L44.8869 40.2852L53.0029 35.6475C54.1624 34.9849 54.6593 34.1568 54.6593 33.3286C54.6593 34.1568 53.9967 34.8193 53.0029 35.4818Z" fill="black"/>
<path opacity="0.25" d="M20.7044 12.79L53.0029 31.1754C53.9967 31.8379 54.6592 32.5004 54.6592 33.3286C54.6592 32.5004 54.1623 31.6723 53.0029 31.0097L20.7044 12.6244C18.3855 11.2993 16.5635 12.2931 16.5635 14.9433V15.1089C16.5635 12.6244 18.3855 11.465 20.7044 12.79Z" fill="white"/>
<defs>
<linearGradient id="paint0_linear_1_578" x1="36.1083" y1="14.6287" x2="8.31005" y2="42.4253" gradientUnits="userSpaceOnUse">
<stop stop-color="#00A0FF"/>
<stop offset="0.007" stop-color="#00A1FF"/>
<stop offset="0.26" stop-color="#00BEFF"/>
<stop offset="0.512" stop-color="#00D2FF"/>
<stop offset="0.76" stop-color="#00DFFF"/>
<stop offset="1" stop-color="#00E3FF"/>
</linearGradient>
<linearGradient id="paint1_linear_1_578" x1="56.0408" y1="33.3308" x2="15.9624" y2="33.3308" gradientUnits="userSpaceOnUse">
<stop stop-color="#FFE000"/>
<stop offset="0.409" stop-color="#FFBD00"/>
<stop offset="0.775" stop-color="#FFA500"/>
<stop offset="1" stop-color="#FF9C00"/>
</linearGradient>
<linearGradient id="paint2_linear_1_578" x1="41.1222" y1="37.1316" x2="3.42733" y2="74.8264" gradientUnits="userSpaceOnUse">
<stop stop-color="#FF3A44"/>
<stop offset="1" stop-color="#C31162"/>
</linearGradient>
<linearGradient id="paint3_linear_1_578" x1="12.0866" y1="0.494047" x2="28.92" y2="17.3274" gradientUnits="userSpaceOnUse">
<stop stop-color="#32A071"/>
<stop offset="0.069" stop-color="#2DA771"/>
<stop offset="0.476" stop-color="#15CF74"/>
<stop offset="0.801" stop-color="#06E775"/>
<stop offset="1" stop-color="#00F076"/>
</linearGradient>
</defs>
</svg>
