<svg width="37" height="42" viewBox="0 0 37 42" fill="none" xmlns="http://www.w3.org/2000/svg">
<path fill-rule="evenodd" clip-rule="evenodd" d="M24.6203 38.3721C28.1533 37.3693 31.8522 36.8635 35.4403 36.4001C36.2132 36.3029 36.9307 36.845 36.9859 37.6088C37.0963 38.3732 36.544 39.0722 35.8263 39.1694C32.3486 39.6155 28.7607 40.0928 25.3934 41.0582C24.6757 41.2676 23.9026 40.8365 23.6818 40.0951C23.461 39.3542 23.9027 38.582 24.6203 38.3721Z" fill="#F1684C"/>
<path fill-rule="evenodd" clip-rule="evenodd" d="M13.9115 24.1554C19.5973 18.2868 26.0008 13.1736 31.5763 7.14757C32.0731 6.58477 32.9564 6.55462 33.5084 7.08001C34.0604 7.60595 34.1154 8.49034 33.5634 9.05314C27.9879 15.0965 21.5844 20.2264 15.8986 26.1123C15.3465 26.6617 14.4635 26.6695 13.9115 26.1291C13.4146 25.5892 13.3594 24.7048 13.9115 24.1554Z" fill="#F1684C"/>
<path fill-rule="evenodd" clip-rule="evenodd" d="M3.25664 1.5827C3.09103 4.94161 2.92575 8.30051 2.76014 11.66C2.76014 12.4294 2.09739 13.0234 1.32455 12.986C0.551714 12.948 1.14441e-05 12.2931 1.14441e-05 11.5232C0.165619 8.1587 0.330904 4.79477 0.496511 1.43084C0.551714 0.661461 1.21425 0.0713069 1.98709 0.113182C2.70472 0.155056 3.31184 0.813886 3.25664 1.5827Z" fill="#F1684C"/>
</svg>
