<svg width="298" height="146" viewBox="0 0 298 146" fill="none" xmlns="http://www.w3.org/2000/svg">
<path fill-rule="evenodd" clip-rule="evenodd" d="M216.827 24.5515C230.978 25.5353 242.077 29.8486 253.157 34.6338C289.494 50.346 300.923 72.8376 274.71 93.3678C233.952 125.201 141.369 143.268 70.7164 130.171C55.0688 127.281 33.8402 124.422 18.677 112.881C4.57152 102.15 5.68198 90.1439 12.8093 79.2843C20.0695 68.1479 33.588 58.1853 44.285 51.8656C91.0507 24.2968 183.353 1.33074 265.22 18.9171C266.903 19.2604 268.618 18.8635 269.138 18.0344C269.658 17.2053 268.848 16.2588 267.286 15.9206C183.015 -2.17921 87.7821 21.2402 39.6484 49.6123C26.3386 57.4938 8.79714 70.8467 3.3429 85.1952C-0.343895 95.0037 1.52951 105.267 13.7512 114.64C29.8533 126.931 52.4013 130.153 69.0115 133.228C141.951 146.754 237.707 128.178 279.723 95.2976C307.941 73.2332 295.857 49.0446 256.779 32.1553C244.867 26.968 232.686 22.4059 217.326 21.3389C215.632 21.2219 214.151 21.8468 214.114 22.7376C213.955 23.6234 215.255 24.4395 216.827 24.5515Z" fill="#222222"/>
</svg>
