<svg width="1169" height="841" viewBox="0 0 1169 841" fill="none" xmlns="http://www.w3.org/2000/svg">
<path d="M15.4963 97.7178L17.1616 81.18L0.861713 87.0378L12.673 98.7324L15.4963 97.7178ZM376.512 707.109L376.93 705.668L376.512 707.109ZM5.65616 840.593L16.9954 835.964L12.3672 824.625L1.02788 829.253L5.65616 840.593ZM17.6864 106.785C20.4054 111.27 23.5545 115.727 27.1559 120.072L29.4655 118.157C25.9592 113.927 22.8953 109.59 20.2517 105.23L17.6864 106.785ZM38.42 131.852C42.3087 135.387 46.5559 138.775 51.1759 141.958L52.878 139.488C48.3697 136.382 44.228 133.078 40.4381 129.632L38.42 131.852ZM65.1215 150.302C69.7773 152.704 74.7269 154.909 79.9797 156.879L81.033 154.07C75.8895 152.141 71.0476 149.984 66.4972 147.636L65.1215 150.302ZM95.5214 161.756C100.567 163.051 105.845 164.143 111.363 165.008L111.827 162.044C106.402 161.194 101.218 160.121 96.2673 158.85L95.5214 161.756ZM127.495 166.819C132.717 167.184 138.125 167.357 143.724 167.323L143.706 164.323C138.18 164.357 132.848 164.185 127.705 163.826L127.495 166.819ZM159.849 166.677C165.055 166.298 170.411 165.748 175.918 165.018L175.524 162.044C170.074 162.767 164.777 163.31 159.631 163.685L159.849 166.677ZM191.874 162.467C197.02 161.508 202.289 160.398 207.681 159.13L206.994 156.209C201.646 157.467 196.423 158.567 191.324 159.518L191.874 162.467ZM223.325 155.097C228.384 153.682 233.545 152.133 238.808 150.445L237.892 147.588C232.663 149.265 227.539 150.803 222.517 152.208L223.325 155.097ZM254.143 145.232C259.087 143.459 264.116 141.567 269.232 139.553L268.133 136.761C263.045 138.765 258.044 140.645 253.13 142.408L254.143 145.232ZM284.087 133.46C288.927 131.397 293.841 129.227 298.829 126.949L297.582 124.22C292.617 126.488 287.726 128.647 282.91 130.7L284.087 133.46ZM313.495 120.035C318.226 117.737 323.02 115.344 327.879 112.853L326.51 110.183C321.67 112.665 316.895 115.048 312.184 117.337L313.495 120.035ZM342.098 105.38C346.781 102.86 351.521 100.251 356.319 97.5516L354.848 94.937C350.066 97.6275 345.342 100.227 340.676 102.738L342.098 105.38ZM370.213 89.5747C372.556 88.2033 374.911 86.8108 377.28 85.397L375.743 82.8209C373.381 84.2304 371.033 85.6186 368.698 86.9857L370.213 89.5747ZM377.28 85.397C379.562 84.0352 381.855 82.6906 384.159 81.3632L382.661 78.7639C380.344 80.0989 378.038 81.4513 375.743 82.8209L377.28 85.397ZM398.106 73.6038C402.791 71.0882 407.517 68.6409 412.281 66.2618L410.94 63.5779C406.151 65.9701 401.398 68.431 396.687 70.9606L398.106 73.6038ZM426.661 59.3392C431.487 57.1011 436.348 54.9307 441.242 52.8279L440.058 50.0715C435.138 52.1855 430.25 54.3674 425.398 56.6176L426.661 59.3392ZM455.991 46.734C460.937 44.7706 465.913 42.8743 470.918 41.0449L469.888 38.2273C464.858 40.066 459.856 41.972 454.884 43.9456L455.991 46.734ZM485.978 35.7693C491.025 34.0774 496.097 32.452 501.193 30.893L500.315 28.0243C495.194 29.591 490.097 31.2245 485.025 32.9249L485.978 35.7693ZM516.513 26.4245C521.642 25.001 526.791 23.6435 531.959 22.3519L531.231 19.4414C526.039 20.7393 520.864 22.1033 515.711 23.5338L516.513 26.4245ZM547.496 18.6789C552.691 17.5204 557.902 16.4275 563.126 15.4L562.548 12.4563C557.298 13.4887 552.062 14.5868 546.843 15.7508L547.496 18.6789ZM578.834 12.5145C584.081 11.6181 589.339 10.7869 594.607 10.0208L594.175 7.052C588.883 7.82169 583.6 8.65677 578.328 9.55736L578.834 12.5145ZM610.44 7.91683C615.727 7.2804 621.02 6.70896 626.318 6.20237L626.032 3.216C620.71 3.7249 615.392 4.29897 610.082 4.93834L610.44 7.91683ZM642.234 4.87623C647.548 4.49869 652.863 4.18608 658.179 3.93827L658.039 0.941528C652.699 1.19047 647.359 1.5045 642.021 1.88377L642.234 4.87623ZM674.137 3.38881C679.466 3.27023 684.792 3.21669 690.113 3.22806L690.12 0.228064C684.774 0.216646 679.423 0.270427 674.07 0.389548L674.137 3.38881ZM706.072 3.45703C711.404 3.59875 716.729 3.80579 722.044 4.07799L722.197 1.08192C716.858 0.808452 711.508 0.60046 706.152 0.458085L706.072 3.45703ZM737.962 5.09028C743.285 5.49496 748.596 5.96539 753.892 6.50142L754.194 3.51667C748.873 2.97811 743.537 2.50548 738.189 2.09891L737.962 5.09028ZM769.735 8.30618C775.034 8.97756 780.315 9.71522 785.577 10.519L786.03 7.55344C780.743 6.74575 775.436 6.00455 770.112 5.32998L769.735 8.30618ZM801.307 13.13C806.564 14.0728 811.799 15.0825 817.009 16.159L817.616 13.221C812.38 12.1392 807.12 11.1245 801.836 10.1771L801.307 13.13ZM832.582 19.5933C837.782 20.8134 842.953 22.1012 848.095 23.4566L848.86 20.5557C843.692 19.1933 838.493 17.8989 833.267 16.6727L832.582 19.5933ZM863.458 27.735C868.582 29.2394 873.673 30.8124 878.727 32.4539L879.654 29.6007C874.572 27.9503 869.455 26.3688 864.303 24.8565L863.458 27.735ZM893.823 37.5998C898.851 39.3965 903.84 41.2628 908.786 43.1987L909.879 40.405C904.905 38.4582 899.888 36.5813 894.832 34.7748L893.823 37.5998ZM923.546 49.2371C928.456 51.3345 933.319 53.5028 938.133 55.7416L939.398 53.0214C934.555 50.7691 929.663 48.588 924.725 46.4783L923.546 49.2371ZM952.481 62.6981C957.246 65.1048 961.957 67.5835 966.612 70.134L968.054 67.503C963.369 64.9362 958.628 62.442 953.834 60.0204L952.481 62.6981ZM980.46 78.0321C985.048 80.7557 989.577 83.5524 994.042 86.4222L995.664 83.8984C991.169 81.0092 986.61 78.1938 981.991 75.4523L980.46 78.0321ZM1007.29 95.281C1011.67 98.3269 1015.98 101.447 1020.22 104.641L1022.02 102.245C1017.75 99.0278 1013.41 95.8855 1009 92.8183L1007.29 95.281ZM1032.76 114.472C1036.88 117.841 1040.94 121.286 1044.91 124.806L1046.9 122.56C1042.9 119.013 1038.81 115.542 1034.65 112.147L1032.76 114.472ZM1056.62 135.607C1060.46 139.296 1064.21 143.061 1067.88 146.901L1070.05 144.829C1066.35 140.958 1062.57 137.163 1058.7 133.444L1056.62 135.607ZM1078.64 158.655C1082.14 162.652 1085.55 166.724 1088.87 170.872L1091.22 168.997C1087.87 164.815 1084.43 160.708 1080.9 156.678L1078.64 158.655ZM1098.56 183.539C1101.68 187.822 1104.71 192.18 1107.64 196.612L1110.14 194.958C1107.18 190.487 1104.13 186.092 1100.98 181.772L1098.56 183.539ZM1116.13 210.12C1118.84 214.662 1121.45 219.277 1123.95 223.965L1126.6 222.55C1124.07 217.82 1121.44 213.165 1118.7 208.583L1116.13 210.12ZM1131.15 238.211C1133.42 242.976 1135.58 247.812 1137.64 252.717L1140.41 251.556C1138.33 246.607 1136.15 241.729 1133.86 236.922L1131.15 238.211ZM1143.48 267.583C1145.29 272.528 1147 277.54 1148.59 282.62L1151.46 281.719C1149.84 276.596 1148.12 271.54 1146.3 266.552L1143.48 267.583ZM1153.04 297.977C1154.39 303.053 1155.63 308.194 1156.77 313.398L1159.7 312.758C1158.56 307.511 1157.3 302.327 1155.94 297.208L1153.04 297.977ZM1159.84 329.125C1160.74 334.284 1161.52 339.502 1162.21 344.779L1165.18 344.393C1164.49 339.074 1163.7 333.815 1162.8 328.614L1159.84 329.125ZM1163.95 360.777C1164.4 365.968 1164.76 371.214 1165.01 376.515L1168.01 376.371C1167.75 371.031 1167.39 365.746 1166.93 360.515L1163.95 360.777ZM1165.47 392.582C1165.52 397.803 1165.47 403.076 1165.33 408.399L1168.32 408.482C1168.47 403.122 1168.52 397.813 1168.47 392.554L1165.47 392.582ZM1164.6 424.384C1164.43 427.073 1164.24 429.774 1164.02 432.488L1167.01 432.73C1167.23 429.998 1167.42 427.28 1167.59 424.573L1164.6 424.384ZM1164.02 432.488C1163.79 435.256 1163.55 438.002 1163.28 440.727L1166.27 441.018C1166.54 438.276 1166.78 435.514 1167.01 432.73L1164.02 432.488ZM1161.44 456.823C1160.74 462.181 1159.95 467.451 1159.08 472.637L1162.04 473.134C1162.91 467.913 1163.71 462.607 1164.42 457.215L1161.44 456.823ZM1156.07 488.639C1154.98 493.91 1153.79 499.088 1152.52 504.174L1155.43 504.902C1156.71 499.777 1157.91 494.56 1159.01 489.25L1156.07 488.639ZM1148.23 519.9C1146.7 525.062 1145.07 530.124 1143.35 535.086L1146.19 536.067C1147.92 531.062 1149.56 525.958 1151.1 520.753L1148.23 519.9ZM1137.67 550.329C1135.66 555.335 1133.56 560.234 1131.35 565.027L1134.08 566.279C1136.3 561.441 1138.43 556.496 1140.45 551.445L1137.67 550.329ZM1124.21 579.572C1121.71 584.357 1119.1 589.028 1116.39 593.588L1118.97 595.119C1121.71 590.513 1124.34 585.795 1126.87 580.964L1124.21 579.572ZM1107.78 607.231C1104.77 611.719 1101.66 616.09 1098.45 620.347L1100.85 622.153C1104.09 617.852 1107.23 613.435 1110.27 608.901L1107.78 607.231ZM1088.41 632.912C1084.93 637.033 1081.34 641.037 1077.66 644.925L1079.84 646.988C1083.56 643.059 1087.18 639.014 1090.7 634.85L1088.41 632.912ZM1066.29 656.29C1062.37 659.988 1058.37 663.572 1054.27 667.043L1056.21 669.332C1060.35 665.826 1064.4 662.206 1068.35 658.47L1066.29 656.29ZM1041.72 677.123C1037.44 680.372 1033.08 683.512 1028.64 686.544L1030.33 689.022C1034.81 685.961 1039.22 682.792 1043.53 679.511L1041.72 677.123ZM1015.12 695.291C1010.54 698.096 1005.88 700.797 1001.15 703.398L1002.6 706.027C1007.37 703.404 1012.06 700.679 1016.68 697.849L1015.12 695.291ZM986.879 710.831C982.067 713.203 977.186 715.48 972.239 717.663L973.451 720.408C978.435 718.208 983.355 715.913 988.206 713.522L986.879 710.831ZM957.374 723.867C952.389 725.833 947.345 727.71 942.245 729.501L943.239 732.332C948.374 730.528 953.454 728.638 958.474 726.658L957.374 723.867ZM926.918 734.576C921.808 736.168 916.649 737.68 911.441 739.113L912.237 742.005C917.476 740.564 922.668 739.043 927.81 737.44L926.918 734.576ZM895.774 743.156C890.576 744.411 885.336 745.592 880.056 746.702L880.673 749.638C885.981 748.522 891.25 747.334 896.478 746.072L895.774 743.156ZM864.149 749.81C858.889 750.762 853.594 751.646 848.267 752.466L848.724 755.431C854.076 754.607 859.397 753.719 864.683 752.762L864.149 749.81ZM832.223 754.726C826.913 755.408 821.575 756.027 816.211 756.587L816.523 759.571C821.909 759.008 827.271 758.386 832.605 757.702L832.223 754.726ZM800.087 758.086C794.743 758.523 789.376 758.904 783.99 759.229L784.171 762.224C789.578 761.897 794.966 761.515 800.332 761.076L800.087 758.086ZM767.823 760.042C762.457 760.259 757.075 760.423 751.68 760.537L751.743 763.536C757.157 763.422 762.558 763.257 767.944 763.04L767.823 760.042ZM735.498 760.73C730.12 760.745 724.733 760.713 719.337 760.635L719.293 763.634C724.706 763.713 730.111 763.745 735.506 763.73L735.498 760.73ZM703.16 760.264C697.78 760.096 692.394 759.884 687.005 759.63L686.864 762.627C692.268 762.882 697.67 763.094 703.067 763.262L703.16 760.264ZM670.849 758.743C665.471 758.407 660.092 758.031 654.716 757.615L654.485 760.606C659.876 761.023 665.269 761.4 670.662 761.738L670.849 758.743ZM638.594 756.254C633.222 755.762 627.855 755.233 622.496 754.668L622.181 757.652C627.554 758.218 632.935 758.748 638.32 759.241L638.594 756.254ZM606.416 752.866C601.054 752.229 595.703 751.559 590.364 750.855L589.972 753.83C595.323 754.535 600.688 755.207 606.062 755.845L606.416 752.866ZM574.333 748.642C568.985 747.869 563.652 747.066 558.337 746.232L557.872 749.196C563.199 750.031 568.544 750.837 573.904 751.611L574.333 748.642ZM542.36 743.63C537.028 742.729 531.717 741.8 526.431 740.844L525.897 743.797C531.195 744.754 536.517 745.686 541.86 746.588L542.36 743.63ZM510.508 737.872C505.197 736.849 499.913 735.801 494.659 734.729L494.059 737.668C499.324 738.743 504.618 739.793 509.941 740.818L510.508 737.872ZM478.79 731.399C473.504 730.259 468.253 729.097 463.039 727.914L462.375 730.84C467.6 732.025 472.862 733.19 478.158 734.332L478.79 731.399ZM447.219 724.234C441.967 722.982 436.756 721.71 431.591 720.42L430.865 723.331C436.04 724.623 441.261 725.898 446.524 727.152L447.219 724.234ZM415.815 716.391C410.568 715.02 405.374 713.633 400.235 712.231L399.445 715.125C404.595 716.53 409.799 717.92 415.057 719.293L415.815 716.391ZM384.606 707.876C382.031 707.143 379.473 706.407 376.93 705.668L376.093 708.549C378.641 709.29 381.205 710.027 383.784 710.761L384.606 707.876ZM376.93 705.668C374.253 704.89 371.59 704.139 368.944 703.414L368.151 706.307C370.783 707.028 373.43 707.776 376.093 708.549L376.93 705.668ZM353.127 699.342C347.739 698.045 342.417 696.859 337.163 695.779L336.559 698.717C341.78 699.791 347.069 700.97 352.425 702.258L353.127 699.342ZM321.004 692.753C315.518 691.828 310.107 691.02 304.773 690.326L304.386 693.301C309.683 693.99 315.055 694.792 320.505 695.711L321.004 692.753ZM288.474 688.533C282.937 688.036 277.485 687.664 272.12 687.411L271.978 690.407C277.301 690.659 282.71 691.028 288.206 691.521L288.474 688.533ZM255.73 687.001C250.166 686.988 244.701 687.104 239.332 687.344L239.466 690.341C244.787 690.103 250.206 689.988 255.722 690.001L255.73 687.001ZM222.963 688.48C217.42 689.004 211.989 689.662 206.667 690.445L207.104 693.413C212.374 692.637 217.754 691.986 223.245 691.467L222.963 688.48ZM190.495 693.272C185.04 694.379 179.711 695.621 174.505 696.986L175.266 699.888C180.417 698.537 185.692 697.308 191.092 696.212L190.495 693.272ZM158.759 701.604C153.473 703.324 148.328 705.172 143.322 707.136L144.418 709.929C149.369 707.986 154.458 706.158 159.687 704.457L158.759 701.604ZM128.204 713.605C123.148 715.954 118.251 718.421 113.512 720.991L114.942 723.628C119.627 721.087 124.469 718.648 129.468 716.326L128.204 713.605ZM99.3329 729.263C94.6088 732.221 90.0627 735.279 85.6927 738.417L87.4426 740.853C91.7619 737.752 96.2554 734.729 100.925 731.805L99.3329 729.263ZM72.6459 748.431C68.3291 751.97 64.2142 755.579 60.2988 759.235L62.3461 761.428C66.2151 757.815 70.2816 754.249 74.5478 750.751L72.6459 748.431ZM48.6407 770.857C44.7906 774.958 41.1784 779.084 37.801 783.206L40.1214 785.107C43.4565 781.037 47.0241 776.961 50.8277 772.911L48.6407 770.857ZM27.8482 796.257C24.5476 800.922 21.5493 805.537 18.8485 810.055L21.4235 811.594C24.0843 807.143 27.0405 802.593 30.2972 797.99L27.8482 796.257ZM11.0167 824.534C9.78242 827.089 8.65343 829.59 7.62883 832.028L10.3945 833.19C11.3981 830.802 12.5055 828.349 13.7179 825.84L11.0167 824.534Z" fill="white"/>
</svg>
