<svg width="164" height="41" viewBox="0 0 164 41" fill="none" xmlns="http://www.w3.org/2000/svg">
<path d="M56.7329 9.25356C58.3284 9.25356 59.699 9.64852 60.8447 10.4385C62.0017 11.2421 62.9102 12.3545 63.467 13.6492C64.085 15.0756 64.393 16.6172 64.3708 18.1719C64.393 19.7265 64.085 21.2681 63.467 22.6946C62.9103 23.9895 62.0018 25.1021 60.8447 25.9059C59.699 26.6958 58.3284 27.0908 56.7329 27.0908H50.6479C50.4427 27.0961 50.2385 27.0592 50.0481 26.9826C49.8576 26.9059 49.6848 26.791 49.5404 26.6449C49.3945 26.5004 49.2797 26.3275 49.203 26.1368C49.1264 25.9462 49.0896 25.7419 49.0949 25.5364V10.8077C49.0896 10.6023 49.1264 10.3979 49.203 10.2073C49.2797 10.0167 49.3945 9.84376 49.5404 9.69922C49.6848 9.55316 49.8576 9.43825 50.0481 9.36157C50.2385 9.28489 50.4427 9.24806 50.6479 9.25336L56.7329 9.25356ZM56.4782 24.1604C58.0058 24.1604 59.1515 23.5956 59.9153 22.4658C60.6791 21.3361 61.0613 19.9049 61.0618 18.1723C61.0618 16.4395 60.6757 15.0083 59.9033 13.8787C59.131 12.7491 57.9893 12.1842 56.4782 12.1841H52.2773V24.1604H56.4782ZM79.9521 9.22814C80.1509 9.22016 80.3491 9.25467 80.5335 9.32938C80.7178 9.40409 80.8842 9.51728 81.0214 9.6614C81.2992 9.96679 81.4455 10.3694 81.4287 10.7821V20.007C81.4543 21.311 81.1476 22.6002 80.5376 23.7528C79.9625 24.8206 79.0975 25.7039 78.0424 26.3009C76.9227 26.9253 75.6577 27.2418 74.3762 27.2182C73.0906 27.2408 71.8218 26.9244 70.6971 26.3009C69.6367 25.7067 68.7671 24.8229 68.1898 23.7526C67.5797 22.6 67.273 21.3108 67.2986 20.0068V10.7825C67.2937 10.576 67.3319 10.3707 67.4108 10.1798C67.4897 9.98893 67.6076 9.81665 67.7569 9.67401C67.9124 9.52515 68.0962 9.409 68.2973 9.33242C68.4985 9.25584 68.7129 9.22038 68.928 9.22814C69.127 9.22702 69.3241 9.2659 69.5078 9.34249C69.6915 9.41908 69.858 9.53182 69.9973 9.67401C70.1466 9.81665 70.2645 9.98893 70.3434 10.1798C70.4223 10.3707 70.4605 10.576 70.4556 10.7825V20.007C70.4419 20.7674 70.6263 21.5183 70.9904 22.1858C71.3237 22.7991 71.822 23.3066 72.4289 23.6507C73.0224 23.9881 73.694 24.1639 74.3766 24.1604C75.0915 24.1641 75.796 23.9889 76.426 23.6507C77.0606 23.3128 77.5894 22.8057 77.9536 22.1854C78.3416 21.5259 78.5398 20.7719 78.5265 20.0068V10.7825C78.5091 10.3742 78.6454 9.97433 78.9084 9.6618C79.0394 9.51665 79.2011 9.40245 79.3816 9.32745C79.5622 9.25245 79.7571 9.21853 79.9523 9.22814H79.9521Z" fill="#222222"/>
<path d="M99.8238 16.9007C100.692 17.2343 101.453 17.798 102.026 18.5315C102.595 19.2619 102.879 20.2045 102.879 21.3592C102.879 23.3808 102.302 24.7907 101.147 25.5891C99.9933 26.3874 98.6184 26.7867 97.023 26.7868H90.6836C90.4784 26.7923 90.2742 26.7557 90.0836 26.6793C89.893 26.6028 89.7201 26.488 89.5755 26.3421C89.4296 26.1976 89.3148 26.0247 89.2381 25.834C89.1615 25.6434 89.1247 25.4391 89.13 25.2337V10.5049C89.1247 10.2995 89.1615 10.0952 89.2381 9.90454C89.3148 9.7139 89.4296 9.54099 89.5755 9.39645C89.7199 9.25039 89.8927 9.13548 90.0832 9.0588C90.2736 8.98212 90.4778 8.94529 90.683 8.95059H97.0995C100.324 8.95059 101.937 10.4625 101.937 13.4863C101.951 14.1999 101.761 14.9026 101.389 15.5119C101.008 16.1127 100.466 16.594 99.8238 16.9007ZM98.6272 14.0468C98.6272 13.3503 98.4532 12.8279 98.1053 12.4797C97.9091 12.2983 97.6782 12.1585 97.4266 12.0687C97.175 11.9789 96.9079 11.9411 96.6413 11.9574H92.4404V15.9323H96.7176C97.2113 15.9379 97.6886 15.7558 98.0533 15.4228C98.2444 15.25 98.3949 15.037 98.4941 14.7991C98.5933 14.5612 98.6388 14.3043 98.6272 14.0468ZM97.0232 23.8573C97.821 23.8573 98.4447 23.6449 98.8945 23.2203C99.3442 22.7956 99.5691 22.1753 99.5691 21.3592C99.5691 20.3568 99.306 19.7031 98.7799 19.398C98.1871 19.0758 97.5192 18.9175 96.845 18.9393H92.4404V23.8573H97.0232ZM115.66 13.1543C115.863 13.1483 116.066 13.1849 116.254 13.2618C116.443 13.3387 116.613 13.4541 116.754 13.6008C116.897 13.7471 117.009 13.9206 117.084 14.111C117.158 14.3014 117.194 14.5048 117.188 14.7092V21.1817C117.188 23.0164 116.683 24.4518 115.674 25.488C114.664 26.5242 113.225 27.0424 111.357 27.0425C109.49 27.0425 108.056 26.5244 107.054 25.4882C106.053 24.452 105.552 23.0165 105.551 21.1817V14.7092C105.546 14.5049 105.581 14.3015 105.656 14.1111C105.73 13.9207 105.842 13.7471 105.984 13.6008C106.126 13.454 106.296 13.3385 106.485 13.2616C106.674 13.1848 106.876 13.1482 107.08 13.1543C107.283 13.1482 107.486 13.1848 107.674 13.2615C107.863 13.3383 108.033 13.4536 108.174 13.6002C108.317 13.7466 108.429 13.9202 108.503 14.1107C108.578 14.3013 108.613 14.5048 108.607 14.7092V21.1817C108.607 22.2179 108.837 22.9866 109.295 23.4878C109.753 23.9891 110.44 24.2396 111.357 24.2395C112.29 24.2395 112.986 23.9889 113.445 23.4878C113.903 22.9867 114.133 22.218 114.132 21.1817V14.7092C114.127 14.5049 114.162 14.3015 114.236 14.1111C114.311 13.9207 114.422 13.7471 114.565 13.6008C114.706 13.4541 114.877 13.3387 115.065 13.2618C115.254 13.1849 115.456 13.1483 115.66 13.1543ZM131.521 7.93118C131.724 7.92483 131.925 7.95999 132.113 8.0345C132.302 8.10901 132.473 8.2213 132.616 8.36444C132.761 8.51189 132.874 8.68735 132.948 8.88005C133.022 9.07276 133.057 9.27865 133.049 9.4851V25.2333C133.054 25.4377 133.019 25.6412 132.945 25.8316C132.87 26.0221 132.759 26.1957 132.616 26.3421C132.475 26.4886 132.304 26.604 132.116 26.6807C131.927 26.7575 131.725 26.7941 131.521 26.788C131.321 26.7951 131.121 26.7603 130.934 26.6857C130.748 26.6111 130.579 26.4984 130.439 26.3547C130.156 26.0597 129.997 25.6678 129.994 25.2591C129.513 25.793 128.928 26.2222 128.275 26.5198C127.565 26.8655 126.785 27.0442 125.996 27.0421C124.87 27.0551 123.764 26.7409 122.813 26.1376C121.85 25.5199 121.071 24.6526 120.561 23.6279C119.995 22.4979 119.711 21.2476 119.733 19.984C119.712 18.7178 119.991 17.4647 120.547 16.3274C121.046 15.2987 121.817 14.4263 122.776 13.8047C123.705 13.2052 124.789 12.8908 125.895 12.9001C126.681 12.8946 127.459 13.0462 128.185 13.346C128.851 13.6132 129.463 13.9972 129.993 14.4799V9.4855C129.988 9.28116 130.023 9.07776 130.097 8.88736C130.172 8.69696 130.284 8.52343 130.426 8.37704C130.568 8.23049 130.738 8.11513 130.927 8.03835C131.115 7.96157 131.318 7.92506 131.521 7.93118ZM126.378 24.2395C126.89 24.2543 127.399 24.1532 127.866 23.9436C128.334 23.734 128.748 23.4214 129.078 23.0292C129.774 22.2223 130.122 21.2073 130.122 19.9842C130.122 18.761 129.774 17.7417 129.078 16.9263C128.743 16.5423 128.33 16.2344 127.867 16.0234C127.404 15.8124 126.901 15.7032 126.392 15.7032C125.883 15.7032 125.38 15.8124 124.916 16.0234C124.453 16.2344 124.04 16.5423 123.706 16.9263C123.01 17.7417 122.662 18.761 122.662 19.9842C122.662 21.2073 123.005 22.2223 123.693 23.0292C124.019 23.4216 124.431 23.7346 124.896 23.9443C125.361 24.154 125.868 24.2549 126.378 24.2395ZM147.383 7.93118C147.585 7.92483 147.787 7.95999 147.975 8.0345C148.163 8.10901 148.334 8.2213 148.477 8.36444C148.622 8.51189 148.735 8.68735 148.809 8.88005C148.884 9.07276 148.918 9.27865 148.91 9.4851V25.2333C148.916 25.4377 148.881 25.6412 148.806 25.8316C148.732 26.0221 148.62 26.1957 148.477 26.3421C148.336 26.4886 148.166 26.604 147.977 26.6807C147.789 26.7575 147.586 26.7941 147.383 26.788C147.182 26.7951 146.982 26.7603 146.796 26.6857C146.61 26.6111 146.441 26.4984 146.301 26.3547C146.018 26.0597 145.859 25.6678 145.855 25.2591C145.375 25.793 144.79 26.2222 144.137 26.5198C143.426 26.8655 142.647 27.0442 141.857 27.0421C140.731 27.0551 139.626 26.7409 138.675 26.1376C137.711 25.52 136.932 24.6526 136.421 23.6277C135.856 22.4977 135.572 21.2474 135.594 19.9837C135.573 18.7176 135.852 17.4645 136.409 16.3272C136.908 15.2986 137.678 14.4262 138.637 13.8047C139.567 13.2052 140.651 12.8908 141.756 12.9001C142.542 12.8945 143.321 13.0461 144.048 13.346C144.713 13.6132 145.325 13.9972 145.856 14.4799V9.4855C145.85 9.28116 145.885 9.07776 145.96 8.88736C146.034 8.69696 146.146 8.52343 146.288 8.37704C146.43 8.23059 146.6 8.11529 146.789 8.03851C146.977 7.96173 147.179 7.92518 147.383 7.93118ZM142.24 24.2395C142.752 24.2543 143.261 24.1532 143.728 23.9436C144.195 23.734 144.609 23.4214 144.939 23.0292C145.635 22.2223 145.983 21.2073 145.983 19.9842C145.983 18.761 145.635 17.7417 144.939 16.9263C144.605 16.5423 144.192 16.2344 143.729 16.0234C143.265 15.8124 142.762 15.7032 142.253 15.7032C141.744 15.7032 141.241 15.8124 140.778 16.0234C140.314 16.2344 139.902 16.5423 139.567 16.9263C138.871 17.7416 138.523 18.7608 138.523 19.984C138.523 21.2071 138.867 22.2221 139.554 23.029C139.88 23.4215 140.292 23.7345 140.757 23.9443C141.223 24.154 141.73 24.255 142.24 24.2395ZM162.328 13.1543C162.531 13.1482 162.734 13.1848 162.922 13.2615C163.111 13.3383 163.281 13.4536 163.422 13.6002C163.565 13.7465 163.677 13.9201 163.752 14.1106C163.826 14.3011 163.862 14.5047 163.856 14.7092V25.5391C163.856 27.7474 163.262 29.357 162.074 30.3677C160.886 31.3785 159.299 31.8838 157.313 31.8838C156.721 31.8826 156.129 31.8358 155.544 31.7437C155.043 31.6767 154.552 31.5528 154.08 31.3743C153.248 31.0176 152.832 30.525 152.832 29.8964C152.836 29.7574 152.862 29.6198 152.908 29.4888C152.985 29.1551 153.169 28.8555 153.43 28.6351C153.656 28.4473 153.939 28.3437 154.232 28.3421C154.397 28.3413 154.56 28.3671 154.716 28.4186C154.835 28.4695 155.043 28.5544 155.34 28.6733C155.646 28.795 155.961 28.893 156.282 28.9663C156.62 29.0436 156.966 29.082 157.313 29.081C158.518 29.081 159.405 28.8219 159.973 28.3037C160.542 27.7855 160.826 26.8982 160.826 25.6417V25.3862C159.943 26.4904 158.568 27.0425 156.701 27.0425C155.877 27.0584 155.066 26.842 154.359 26.4182C153.679 26.0016 153.132 25.4007 152.78 24.6853C152.395 23.8965 152.204 23.0275 152.22 22.1498V14.7092C152.215 14.5049 152.25 14.3015 152.324 14.1111C152.399 13.9207 152.511 13.7471 152.653 13.6008C152.795 13.4542 152.965 13.3389 153.153 13.2621C153.342 13.1854 153.544 13.1488 153.748 13.1549C153.951 13.1488 154.154 13.1854 154.342 13.2621C154.531 13.3389 154.701 13.4542 154.843 13.6008C154.985 13.7471 155.097 13.9207 155.171 14.1111C155.246 14.3015 155.281 14.5049 155.275 14.7092V21.2331C155.275 22.3033 155.509 23.0721 155.975 23.5393C156.442 24.0065 157.125 24.2399 158.025 24.2397C158.907 24.2397 159.59 23.9806 160.074 23.4624C160.558 22.9442 160.8 22.201 160.8 21.2327V14.7092C160.794 14.5049 160.83 14.3015 160.904 14.1111C160.978 13.9207 161.09 13.7471 161.233 13.6008C161.374 13.4541 161.545 13.3387 161.733 13.2618C161.922 13.1849 162.124 13.1483 162.328 13.1543Z" fill="#F1684C"/>
<path d="M15.9984 40.296C14.0118 40.296 14.4519 39.0995 15.5957 37.9669C16.0396 37.1281 18.8947 36.1744 19.5893 35.534C22.3501 34.334 23.6251 30.5176 24.2972 27.3806C23.6586 27.4793 23.0101 27.4961 22.3673 27.4307C20.6123 27.2597 18.8146 26.5215 17.367 25.5373C17.3631 25.535 17.3601 25.5314 17.3587 25.5271C17.3572 25.5228 17.3574 25.5181 17.3591 25.5139C17.3609 25.5097 17.3641 25.5062 17.3682 25.5042C17.3722 25.5022 17.3769 25.5017 17.3813 25.5029C20.2427 26.0886 22.789 25.3342 24.9336 23.7707C24.94 23.7328 24.9463 23.6958 24.9525 23.6599C25.1935 22.2744 24.9928 20.8232 25.2942 19.4611C25.7026 17.6157 27.258 16.0706 29.1154 15.7335C29.6397 15.6383 30.2047 15.7261 30.7263 15.7896C31.3502 15.866 31.9437 16.1025 32.4493 16.4762C32.7767 16.7078 33.1304 16.9395 33.3865 17.2521C35.0315 19.2605 34.762 21.5263 34.7466 23.9471C34.7323 26.1673 33.9828 28.5025 32.9973 30.4615C31.1898 34.0542 28.4406 37.2822 24.6963 38.9876C20.5408 40.3607 19.4874 40.6062 18.8541 39.8517C17.5912 40.1634 16.6611 40.2961 15.9996 40.2961L15.9984 40.296ZM22.9553 12.547C21.8514 10.606 22.3626 7.8153 24.226 6.53901C24.8003 6.13702 25.4477 5.85157 26.1317 5.69878C26.705 5.58113 27.3824 5.61815 27.9504 5.74704C29.1964 6.02996 30.3957 6.82837 31.0374 7.9525C32.5779 10.6506 30.7798 14.1489 27.8547 14.7678C27.5613 14.8296 27.2623 14.8606 26.9625 14.8604C25.3456 14.8604 23.7652 13.971 22.9553 12.547Z" fill="#F1684C"/>
<path d="M17.9314 40.4248C14.8217 40.4248 10.8238 39.5387 6.60937 36.2755C2.76411 33.2015 0.0244181 28.9614 0.000109536 23.9469C-0.00314489 23.2668 0.0406902 22.6108 0.0871155 21.935C0.293937 18.9325 1.15364 14.2663 4.78597 13.8196C5.19913 13.7667 5.61737 13.7672 6.03042 13.821C7.8337 14.0789 9.37251 15.6009 9.55555 17.4325C9.6583 18.4606 9.33312 19.4763 9.28843 20.4981C9.28444 20.5891 9.28092 20.6802 9.27787 20.7712C11.1997 23.4625 13.9444 25.393 17.4447 25.5839C17.5955 25.5922 17.7476 25.6018 17.9012 25.6128C17.9559 25.6168 17.9579 25.6294 17.9072 25.6507C17.6976 25.7405 17.4109 25.8418 17.0469 25.9547C15.0694 26.5671 12.8514 26.751 10.8492 26.2349C10.4697 26.1375 10.0978 26.0127 9.73641 25.8614C10.7756 30.1297 13.577 33.8833 17.2292 36.2755C18.2765 36.9617 20.9974 38.4031 22.3978 38.7456C22.9272 38.8402 23.8383 39.1815 24.0679 39.2001C23.6507 39.3749 21.3179 40.4248 17.9325 40.4249L17.9314 40.4248ZM24.0683 39.2C24.0923 39.19 24.1101 39.1828 24.1215 39.1788C24.1261 39.1941 24.1132 39.2007 24.0863 39.2007C24.0804 39.2007 24.0745 39.2006 24.068 39.2001L24.0683 39.2ZM9.48974 11.9311C5.61326 11.9311 3.06903 7.25085 5.42091 3.92505C6.28094 2.70885 7.57467 2.11364 8.99752 1.86191C11.7398 1.37665 14.3597 3.87991 14.5406 6.5114C14.6233 7.74818 14.2513 8.97255 13.4949 9.95399C12.7384 10.9354 11.6495 11.6062 10.4333 11.8401C10.123 11.9002 9.80769 11.9306 9.49166 11.9311L9.48974 11.9311Z" fill="#111827"/>
<path d="M33.7549 11.0819C33.784 10.9324 33.8273 10.7861 33.8843 10.645C33.9264 10.5413 33.9793 10.4424 34.0421 10.3498C34.0281 10.3306 34.0157 10.3141 34.0018 10.2951C33.9926 10.2816 33.986 10.2665 33.9822 10.2506C33.9778 10.2349 33.9721 10.2195 33.9651 10.2047C33.9568 10.1735 33.953 10.1412 33.9538 10.1089C33.9522 10.0751 33.9567 10.0412 33.9673 10.0091C33.9719 9.99296 33.9785 9.97749 33.9869 9.96298C33.9935 9.94765 34.0002 9.93222 34.007 9.91703C34.0153 9.90279 34.0255 9.88976 34.0374 9.87832C34.048 9.86422 34.0579 9.85194 34.0679 9.83965C34.0896 9.81602 34.1154 9.79648 34.1441 9.78196C34.1466 9.78055 34.1472 9.77857 34.1492 9.77914C34.1543 9.77631 34.1614 9.77393 34.1665 9.77111C34.1846 9.76228 34.2033 9.75472 34.2225 9.74848C34.2303 9.30894 34.1155 8.875 34.031 8.43947C33.9686 8.1508 33.941 7.85568 33.949 7.56045C33.9548 7.39797 33.9821 7.23697 34.03 7.08165L32.2474 7.35848C32.2723 7.22665 32.276 7.09167 32.2582 6.95867C32.0943 5.72636 30.7112 4.50172 28.8941 3.98003C27.0769 3.45834 25.2562 3.76322 24.4649 4.72128C24.3778 4.82366 24.3088 4.94008 24.2607 5.06558L22.6605 3.68164C22.6353 3.65965 22.6168 3.63091 22.6073 3.59879C22.5977 3.56666 22.5976 3.53249 22.6068 3.50029C22.616 3.46808 22.6342 3.43919 22.6593 3.41699C22.6844 3.3948 22.7153 3.38023 22.7483 3.375L29.1528 2.37794C29.2186 2.36801 29.2857 2.37237 29.3496 2.39071C29.4135 2.40906 29.4727 2.44097 29.5232 2.48426L34.4283 6.73057C34.4535 6.75255 34.472 6.78129 34.4815 6.81341C34.491 6.84553 34.4911 6.8797 34.4819 6.91188L34.4807 6.91597C34.4481 7.05961 34.3838 7.19413 34.3533 7.33831C34.3232 7.48827 34.3119 7.64139 34.3195 7.79416C34.3368 8.08564 34.3801 8.375 34.4487 8.65881C34.5278 9.03701 34.6014 9.42663 34.5639 9.80585C34.5903 9.82433 34.6128 9.84764 34.6305 9.87453C34.6333 9.87963 34.6367 9.88274 34.6395 9.88784C34.6682 9.92091 34.6879 9.96075 34.6969 10.0036C34.7037 10.0255 34.7073 10.0483 34.7077 10.0712C34.7092 10.0828 34.7095 10.0945 34.7085 10.1061C34.7074 10.1635 34.6928 10.2198 34.6657 10.2705C34.7816 10.4067 34.8666 10.5664 34.9151 10.7386C34.9814 11.0117 35.0125 11.2922 35.0078 11.5732C35.008 11.5797 35.0077 11.5883 35.008 11.5949C35.008 11.6014 35.0083 11.608 35.0089 11.6145C35.0048 11.621 34.9988 11.6261 34.9918 11.6291C34.9021 11.6787 34.7935 11.667 34.6915 11.6548C34.6816 11.5313 34.6672 11.4086 34.6528 11.286C34.6506 11.2999 34.6494 11.314 34.6493 11.3281C34.6468 11.3447 34.6467 11.3598 34.6448 11.3742C34.6407 11.4033 34.6361 11.4343 34.6321 11.4633C34.6225 11.5221 34.6067 11.5797 34.585 11.6351C34.5845 11.6371 34.5825 11.6365 34.5819 11.6385C34.5805 11.6393 34.5789 11.6396 34.5774 11.6394C34.5563 11.6396 34.5351 11.6379 34.5143 11.6341C34.5138 11.6346 34.5132 11.6349 34.5126 11.635C34.512 11.6351 34.5113 11.6351 34.5107 11.6349C34.51 11.6347 34.5095 11.6344 34.509 11.634C34.5085 11.6335 34.5082 11.6329 34.508 11.6323C34.5065 11.6297 34.5066 11.6297 34.5071 11.6278C34.5054 11.6064 34.5048 11.5849 34.5053 11.5635C34.5026 11.5747 34.499 11.5856 34.4946 11.5962C34.4921 11.6113 34.4885 11.6261 34.484 11.6406C34.4608 11.6419 34.4376 11.6388 34.4155 11.6317L34.4135 11.6311C34.4132 11.631 34.413 11.6309 34.4128 11.6307C34.4126 11.6306 34.4124 11.6304 34.4122 11.6301C34.4121 11.6299 34.412 11.6296 34.412 11.6294C34.412 11.6291 34.412 11.6288 34.4121 11.6286C34.4138 11.5925 34.4176 11.557 34.4187 11.5227C34.4198 11.5048 34.4199 11.4869 34.4191 11.469C34.4168 11.4523 34.4159 11.4355 34.4162 11.4186C34.4068 11.4915 34.3872 11.5626 34.3578 11.63C34.3351 11.6318 34.3123 11.6303 34.29 11.6256L34.2841 11.6239C34.2826 11.6214 34.2812 11.6188 34.2818 11.6167C34.275 11.5652 34.2707 11.5124 34.262 11.4602C34.2565 11.5084 34.2458 11.5559 34.2301 11.6019C34.2297 11.6048 34.2288 11.6076 34.2273 11.6102C34.2258 11.6127 34.2238 11.6149 34.2215 11.6167C34.216 11.6194 34.2097 11.6199 34.2039 11.6181C34.1828 11.6165 34.1604 11.6121 34.1393 11.6104C34.1338 11.4915 34.1348 11.3723 34.1424 11.2535C34.133 11.3123 34.1206 11.3706 34.1052 11.4282C34.0937 11.471 34.0782 11.5127 34.0589 11.5527C34.0573 11.5569 34.0547 11.5606 34.0515 11.5636C34.0443 11.5668 34.0365 11.5682 34.0287 11.5678C34.0196 11.5696 34.0085 11.5707 33.9997 11.5725C33.9802 11.5756 33.9605 11.5764 33.9408 11.575C33.902 11.5721 33.8638 11.564 33.8271 11.5509C33.8242 11.5504 33.8216 11.5489 33.8197 11.5466C33.8167 11.5432 33.8149 11.5389 33.8146 11.5344C33.805 11.4626 33.8025 11.3887 33.7973 11.3161C33.7913 11.3272 33.7872 11.3391 33.785 11.3515C33.772 11.4123 33.7589 11.4732 33.7503 11.5332C33.7305 11.5339 33.7107 11.5326 33.6911 11.5292C33.7086 11.3788 33.7251 11.2306 33.7549 11.0819ZM28.1912 6.43537C26.5552 5.96569 24.9455 6.12637 23.9986 6.78543L24.4588 5.29924C24.5005 5.16115 24.5695 5.03285 24.6617 4.92194C25.3901 4.04067 27.0861 3.75174 28.8176 4.24887C30.5492 4.74599 31.8343 5.89078 31.9857 7.02464C32.0049 7.16761 31.9955 7.31297 31.958 7.45225L31.5617 8.95677C31.1071 7.89537 29.827 6.905 28.1912 6.43537Z" fill="#222222"/>
</svg>
